<svg width="37" height="38" viewBox="0 0 37 38" fill="none" xmlns="http://www.w3.org/2000/svg">
<path d="M18.5002 17.5239C19.7774 17.5239 20.8127 16.4886 20.8127 15.2114C20.8127 13.9342 19.7774 12.8989 18.5002 12.8989C17.223 12.8989 16.1877 13.9342 16.1877 15.2114C16.1877 16.4886 17.223 17.5239 18.5002 17.5239Z" fill="white"/>
<path d="M18.5003 3.64893C15.2505 3.64876 12.1321 4.93122 9.82265 7.21756C7.51322 9.5039 6.19949 12.6093 6.16699 15.8589C6.16699 24.3072 17.0357 33.7114 17.4982 34.1122C17.7774 34.3511 18.1328 34.4823 18.5003 34.4823C18.8677 34.4823 19.2231 34.3511 19.5024 34.1122C20.0419 33.7114 30.8336 24.3072 30.8336 15.8589C30.8011 12.6093 29.4874 9.5039 27.1779 7.21756C24.8685 4.93122 21.75 3.64876 18.5003 3.64893ZM18.5003 20.6072C17.4331 20.6072 16.3899 20.2908 15.5025 19.6979C14.6152 19.105 13.9236 18.2623 13.5152 17.2763C13.1068 16.2903 12.9999 15.2054 13.2081 14.1587C13.4163 13.112 13.9302 12.1506 14.6849 11.396C15.4395 10.6413 16.4009 10.1275 17.4476 9.91927C18.4943 9.71107 19.5792 9.81793 20.5652 10.2263C21.5511 10.6347 22.3939 11.3263 22.9868 12.2136C23.5797 13.101 23.8961 14.1442 23.8961 15.2114C23.8961 16.6425 23.3276 18.0149 22.3157 19.0268C21.3038 20.0387 19.9313 20.6072 18.5003 20.6072Z" fill="white"/>
</svg>
