<svg width="24" height="24" viewBox="0 0 24 24" fill="none" xmlns="http://www.w3.org/2000/svg">
<g clip-path="url(#clip0_855_243)">
<path d="M19.4616 10.8362L10.8336 19.4618C10.6656 19.6298 10.4568 19.7138 10.2048 19.7138C9.95279 19.7138 9.74399 19.6298 9.57599 19.4618L4.52639 14.4074C4.35119 14.2298 4.25999 14.021 4.25999 13.7786C4.25999 13.5362 4.34879 13.3274 4.52639 13.1498L13.152 4.52663C13.32 4.35863 13.5288 4.27463 13.7808 4.27463C14.0328 4.27463 14.2416 4.35863 14.4096 4.52663L19.464 9.57863C19.6392 9.75383 19.728 9.96503 19.728 10.2074C19.7256 10.4498 19.6392 10.6586 19.4616 10.8362ZM23.244 8.04263L21.4848 6.29783C20.964 6.81863 20.3304 7.07783 19.5864 7.07783C18.8424 7.07783 18.2088 6.81623 17.688 6.29783C17.1672 5.77703 16.9056 5.14343 16.9056 4.39943C16.9056 3.65543 17.1672 3.02183 17.688 2.50103L15.9432 0.756234C15.6 0.410634 15.1776 0.240234 14.6808 0.240234C14.184 0.240234 13.7616 0.410634 13.4184 0.756234L0.75839 13.4018C0.41279 13.7474 0.23999 14.1674 0.23999 14.6666C0.23999 15.1634 0.41279 15.5858 0.75839 15.929L2.50319 17.6882C3.02399 17.1674 3.65759 16.9058 4.40159 16.9058C5.14559 16.9058 5.77919 17.1674 6.29999 17.6882C6.82079 18.209 7.07999 18.8426 7.07999 19.5866C7.07999 20.3306 6.82079 20.9642 6.29999 21.485L8.05919 23.2442C8.40239 23.5874 8.82479 23.7602 9.32159 23.7602C9.81839 23.7602 10.2408 23.5874 10.584 23.2442L23.244 10.5698C23.5896 10.2266 23.76 9.80423 23.76 9.30743C23.76 8.80823 23.5896 8.38823 23.244 8.04263Z" fill="black"/>
<path d="M13.7805 5.79639L18.1917 10.2076L10.2069 18.19L5.79565 13.7812L13.7805 5.79639Z" fill="black"/>
</g>
<defs>
<clipPath id="clip0_855_243">
<rect width="24" height="24" fill="white"/>
</clipPath>
</defs>
</svg>
