<svg width="308" height="16" viewBox="0 0 308 16" fill="none" xmlns="http://www.w3.org/2000/svg">
<path d="M3.7 15H0.5V0.999999H3.7V15ZM19.707 0.999999V15H17.147L10.507 6.6V15H7.50703V0.999999H10.067L16.707 9.44V0.999999H19.707ZM25.9078 4H21.7078V0.999999H33.3078V4H29.1078V15H25.9078V4ZM43.8 15H35.3V0.999999H43.6V4H38.5V6.46H43V9.46H38.5V12H43.8V15ZM50.0039 10.1V15H46.8039V0.999999C47.5639 0.999999 48.4039 0.993332 49.3239 0.979999C50.2439 0.966666 50.9906 0.96 51.5639 0.96C55.0172 0.96 56.7439 2.45333 56.7439 5.44C56.7439 7.36 55.9572 8.70667 54.3839 9.48L58.4639 15H54.5839L51.1839 10.1H50.0039ZM51.4039 3.96C51.3906 3.96 51.3306 3.96667 51.2239 3.98C51.1172 3.98 50.9506 3.98667 50.7239 4C50.4972 4 50.2572 4 50.0039 4V7.1H51.1639C52.6172 7.1 53.3439 6.56 53.3439 5.48C53.3439 4.46667 52.6972 3.96 51.4039 3.96ZM72.4609 0.999999V15H69.9009L63.2609 6.6V15H60.2609V0.999999H62.8209L69.4609 9.44V0.999999H72.4609ZM77.4817 15H74.2617L80.0817 0.999999H82.9417L88.7617 15H85.3417L84.1817 12.06H78.6417L77.4817 15ZM82.9817 9.06L81.4217 5.1L79.8417 9.06H82.9817ZM92.0797 4H87.8797V0.999999H99.4797V4H95.2797V15H92.0797V4ZM104.872 15H101.672V0.999999H104.872V15ZM107.679 8C107.679 5.93333 108.366 4.21333 109.739 2.84C111.126 1.45333 112.919 0.76 115.119 0.76C117.306 0.76 119.086 1.42 120.459 2.74C121.859 4.06 122.559 5.81333 122.559 8C122.559 10.1067 121.852 11.84 120.439 13.2C119.039 14.56 117.266 15.24 115.119 15.24C112.946 15.24 111.159 14.58 109.759 13.26C108.372 11.94 107.679 10.1867 107.679 8ZM111.079 8C111.079 9.18667 111.472 10.1933 112.259 11.02C113.032 11.8333 113.986 12.24 115.119 12.24C116.399 12.24 117.392 11.8467 118.099 11.06C118.806 10.2467 119.159 9.22667 119.159 8C119.159 6.73333 118.772 5.71333 117.999 4.94C117.212 4.15333 116.252 3.76 115.119 3.76C113.946 3.76 112.979 4.15333 112.219 4.94C111.459 5.72667 111.079 6.74667 111.079 8ZM137.363 0.999999V15H134.803L128.163 6.6V15H125.163V0.999999H127.723L134.363 9.44V0.999999H137.363ZM142.384 15H139.164L144.984 0.999999H147.844L153.664 15H150.244L149.084 12.06H143.544L142.384 15ZM147.884 9.06L146.324 5.1L144.744 9.06H147.884ZM164.356 15H155.456V0.999999H158.656V12H164.356V15ZM173.759 15H170.559V0.999999H173.759V15ZM189.766 0.999999V15H187.206L180.566 6.6V15H177.566V0.999999H180.126L186.766 9.44V0.999999H189.766ZM201.666 0.999999H204.886L199.426 15H196.966L191.366 0.999999H194.786L198.306 10.24L201.666 0.999999ZM214.991 15H206.491V0.999999H214.791V4H209.691V6.46H214.191V9.46H209.691V12H214.991V15ZM223.135 11.16C223.135 10.5733 222.449 9.95333 221.075 9.3C220.675 9.12667 220.322 8.96667 220.015 8.82C219.722 8.66 219.389 8.44667 219.015 8.18C218.655 7.9 218.355 7.61333 218.115 7.32C217.889 7.02667 217.689 6.66 217.515 6.22C217.355 5.78 217.282 5.30667 217.295 4.8C217.295 3.68 217.709 2.72667 218.535 1.94C219.362 1.15333 220.455 0.76 221.815 0.76C223.602 0.76 224.975 1.27333 225.935 2.3L224.215 4.7C223.829 4.34 223.489 4.09333 223.195 3.96C222.915 3.82667 222.549 3.76 222.095 3.76C221.655 3.76 221.309 3.85333 221.055 4.04C220.815 4.22667 220.695 4.48 220.695 4.8C220.695 5.16 220.835 5.48 221.115 5.76C221.409 6.04 221.769 6.27333 222.195 6.46C222.635 6.63333 223.109 6.85333 223.615 7.12C224.122 7.38667 224.589 7.67333 225.015 7.98C225.455 8.27333 225.815 8.69333 226.095 9.24C226.389 9.77333 226.535 10.4 226.535 11.12C226.535 12.32 226.075 13.3067 225.155 14.08C224.262 14.8533 223.122 15.24 221.735 15.24C220.722 15.24 219.762 15.0333 218.855 14.62C217.935 14.2067 217.315 13.6467 216.995 12.94L218.815 10.76C219.175 11.2267 219.629 11.5933 220.175 11.86C220.722 12.1133 221.269 12.24 221.815 12.24C222.229 12.24 222.549 12.1467 222.775 11.96C223.015 11.76 223.135 11.4933 223.135 11.16ZM231.728 4H227.528V0.999999H239.128V4H234.928V15H231.728V4ZM244.32 15H241.12V0.999999H244.34L248.66 6.9L252.74 0.999999H255.76V15H252.56V6.08L248.66 11.54H248.2L244.32 6.14V15ZM267.863 15H259.363V0.999999H267.662V4H262.562V6.46H267.063V9.46H262.562V12H267.863V15ZM283.066 0.999999V15H280.506L273.866 6.6V15H270.866V0.999999H273.426L280.066 9.44V0.999999H283.066ZM289.267 4H285.067V0.999999H296.667V4H292.467V15H289.267V4ZM303.799 11.16C303.799 10.5733 303.113 9.95333 301.739 9.3C301.339 9.12667 300.986 8.96667 300.679 8.82C300.386 8.66 300.053 8.44667 299.679 8.18C299.319 7.9 299.019 7.61333 298.779 7.32C298.553 7.02667 298.353 6.66 298.179 6.22C298.019 5.78 297.946 5.30667 297.959 4.8C297.959 3.68 298.373 2.72667 299.199 1.94C300.026 1.15333 301.119 0.76 302.479 0.76C304.266 0.76 305.639 1.27333 306.599 2.3L304.879 4.7C304.493 4.34 304.153 4.09333 303.859 3.96C303.579 3.82667 303.213 3.76 302.759 3.76C302.319 3.76 301.973 3.85333 301.719 4.04C301.479 4.22667 301.359 4.48 301.359 4.8C301.359 5.16 301.499 5.48 301.779 5.76C302.073 6.04 302.433 6.27333 302.859 6.46C303.299 6.63333 303.773 6.85333 304.279 7.12C304.786 7.38667 305.253 7.67333 305.679 7.98C306.119 8.27333 306.479 8.69333 306.759 9.24C307.053 9.77333 307.199 10.4 307.199 11.12C307.199 12.32 306.739 13.3067 305.819 14.08C304.926 14.8533 303.786 15.24 302.399 15.24C301.386 15.24 300.426 15.0333 299.519 14.62C298.599 14.2067 297.979 13.6467 297.659 12.94L299.479 10.76C299.839 11.2267 300.293 11.5933 300.839 11.86C301.386 12.1133 301.933 12.24 302.479 12.24C302.893 12.24 303.213 12.1467 303.439 11.96C303.679 11.76 303.799 11.4933 303.799 11.16Z" fill="url(#paint0_linear_855_265)"/>
<defs>
<linearGradient id="paint0_linear_855_265" x1="-1.5" y1="9" x2="308.5" y2="9" gradientUnits="userSpaceOnUse">
<stop stop-color="#8EC53B"/>
<stop offset="1" stop-color="#22CDD8"/>
</linearGradient>
</defs>
</svg>
