<svg width="129" height="45" viewBox="0 0 129 45" fill="none" xmlns="http://www.w3.org/2000/svg">
<g clip-path="url(#clip0_863_53)">
<path d="M67.4216 4.2745C65.7598 6.19867 65.375 15.1198 65.375 15.4522C65.375 15.4522 66.3895 15.9769 72.5644 10.5018C78.7392 5.02668 82.4476 0.00634766 82.4476 0.00634766C82.4476 0.00634766 70.2379 1.0559 67.4216 4.2745Z" fill="white"/>
<path d="M61.5084 4.27459C63.1702 6.19876 63.555 15.1199 63.555 15.4523C63.555 15.4523 62.5404 15.977 56.3656 10.5019C50.1908 5.02676 46.4824 0.0239258 46.4824 0.0239258C46.4824 0.0239258 58.7271 1.05598 61.5084 4.27459Z" fill="white"/>
<path d="M19.5969 32.5073V40.2214H16.3084V32.7347C16.3084 31.2303 15.5387 30.3382 14.2093 30.3382C12.7224 30.3382 11.8828 31.3528 11.8828 33.172V40.2214H8.59419V32.7347C8.59419 31.2303 7.82452 30.3382 6.51259 30.3382C5.07821 30.3382 4.18609 31.3528 4.18609 33.172V40.2214H0.915009V27.312H4.20359V29.0263C4.92078 27.8893 6.09277 27.347 7.68458 27.347C9.20642 27.347 10.3609 27.9417 11.0956 29.1487C11.9352 27.9417 13.1947 27.347 14.8565 27.347C17.7252 27.3295 19.5969 29.3586 19.5969 32.5073Z" fill="white"/>
<path d="M22.7805 27.312H26.0691V40.2214H22.7805V27.312ZM22.6056 24.1284C22.6056 23.1138 23.4103 22.2917 24.4248 22.2742C25.4394 22.2567 26.2615 23.0789 26.279 24.0934C26.279 25.108 25.4744 25.9301 24.4598 25.9476H24.4423C23.4278 25.9301 22.6231 25.1255 22.6056 24.1284Z" fill="white"/>
<path d="M39.9406 28.7114C40.8328 29.6385 41.305 30.898 41.305 32.5422V40.2389H38.1214V32.9271C38.1214 31.2478 37.1069 30.3382 35.585 30.3382C33.9057 30.3382 32.7687 31.3703 32.7687 33.4519V40.2214H29.5851V27.312H32.7687V29.0962C33.6084 27.9242 34.8328 27.347 36.5296 27.347C37.9115 27.3295 39.066 27.7668 39.9406 28.7114Z" fill="white"/>
<path d="M68.1909 27.312H71.7769L67.0014 40.2214H63.3105L58.5176 27.312H62.0686L65.1122 36.478L68.1909 27.312Z" fill="white"/>
<path d="M79.1065 37.5277C80.121 37.5277 80.9607 37.1953 81.6079 36.5656C82.2901 35.8834 82.6574 34.9563 82.6224 34.0117C82.6224 32.9796 82.3076 32.1225 81.6079 31.4753C80.9607 30.7931 80.051 30.4257 79.1065 30.4607C78.0919 30.4607 77.2523 30.7931 76.605 31.4753C75.9578 32.1225 75.643 32.9796 75.643 34.0117C75.643 35.0438 75.9753 35.9009 76.605 36.5656C77.2348 37.2303 78.0744 37.5277 79.1065 37.5277ZM82.535 27.3296H85.8236V40.239H82.535V38.7871C81.6079 40.0116 80.226 40.6413 78.4417 40.6413C76.7625 40.6413 75.3281 40.0116 74.1211 38.7172C72.9141 37.4227 72.3369 35.8484 72.3369 33.9767C72.3369 32.105 72.9316 30.5657 74.1211 29.2713C75.3106 27.9768 76.745 27.3296 78.4417 27.3296C80.191 27.3296 81.6079 27.9243 82.535 29.1838V27.3296Z" fill="white"/>
<path d="M111.222 32.822C110.855 31.0728 109.578 30.2856 108.109 30.2856C106.377 30.2856 105.205 31.1778 104.803 32.822H111.222ZM104.855 35.271C105.292 36.9153 106.464 37.65 108.406 37.65C109.63 37.65 110.593 37.2301 111.222 36.408L113.829 37.9123C112.604 39.6966 110.75 40.6237 108.336 40.6237C106.254 40.6237 104.593 39.9939 103.316 38.7345C102.039 37.475 101.427 35.8832 101.427 33.9591C101.427 32.0349 102.056 30.4955 103.298 29.2186C104.54 27.9417 106.132 27.2944 108.074 27.2944C109.928 27.2944 111.45 27.9242 112.622 29.2186C113.794 30.513 114.423 32.0524 114.423 33.9591C114.423 34.4139 114.388 34.8687 114.336 35.3235L104.855 35.271Z" fill="white"/>
<path d="M124.622 27.3472H128.085L123.52 39.9417C122.208 43.5627 120.074 45.1545 116.89 44.9795V41.9534C118.639 41.9708 119.566 41.2536 120.179 39.5219L115.001 27.3472H118.552L121.84 35.796L124.622 27.3472Z" fill="white"/>
<path d="M92.4176 21.9072C89.1115 22.327 89.234 24.811 89.234 24.811V40.2218H92.4176V21.9072Z" fill="white"/>
<path d="M52.5347 36.4259C51.1353 37.7553 48.9313 37.7553 47.5319 36.4259C46.8847 35.7612 46.5698 34.904 46.5698 33.872C46.5698 32.8399 46.9022 31.9828 47.5319 31.3356C48.1966 30.6709 49.1062 30.3035 50.0508 30.321C51.0653 30.321 51.905 30.6534 52.5522 31.3356C53.1994 31.9828 53.5143 32.8399 53.5143 33.872C53.5143 34.904 53.1819 35.7612 52.5347 36.4259ZM56.6279 21.9246V21.8896C53.3394 22.327 53.4443 24.8284 53.4443 24.8284V29.0615C52.4123 27.8371 51.1528 27.2073 49.4036 27.2073C47.7243 27.2073 46.2549 27.8546 45.0654 29.149C43.876 30.4434 43.2812 31.9828 43.2812 33.872C43.2812 35.7611 43.876 37.318 45.0829 38.6124C46.2899 39.9069 47.7068 40.5366 49.4036 40.5366C51.1528 40.5366 52.4298 39.9418 53.4443 38.6824V40.2392H56.6279V21.9246Z" fill="white"/>
<path d="M99.1 21.9067C95.8115 22.3266 95.9164 24.8105 95.9164 24.8105V40.2213H99.1V21.9067Z" fill="white"/>
</g>
<defs>
<clipPath id="clip0_863_53">
<rect width="127.17" height="44.994" fill="white" transform="translate(0.915009 0.00292969)"/>
</clipPath>
</defs>
</svg>
