<?xml version="1.0" encoding="UTF-8"?>
<!DOCTYPE svg PUBLIC "-//W3C//DTD SVG 1.1//EN" "http://www.w3.org/Graphics/SVG/1.1/DTD/svg11.dtd">
<svg xmlns="http://www.w3.org/2000/svg" version="1.1" width="1470px" height="980px" style="shape-rendering:geometricPrecision; text-rendering:geometricPrecision; image-rendering:optimizeQuality; fill-rule:evenodd; clip-rule:evenodd" xmlns:xlink="http://www.w3.org/1999/xlink">
<g><path style="opacity:1" fill="#818ca7" d="M 454.5,69.5 C 442.833,69.5 431.167,69.5 419.5,69.5C 407.833,69.5 396.167,69.5 384.5,69.5C 384.5,57.8333 384.5,46.1667 384.5,34.5C 407.833,34.5 431.167,34.5 454.5,34.5C 454.5,46.1667 454.5,57.8333 454.5,69.5 Z"/></g>
<g><path style="opacity:1" fill="#818ca7" d="M 384.5,69.5 C 384.5,104.5 384.5,139.5 384.5,174.5C 372.833,174.5 361.167,174.5 349.5,174.5C 349.5,139.5 349.5,104.5 349.5,69.5C 361.167,69.5 372.833,69.5 384.5,69.5 Z"/></g>
<g><path style="opacity:1" fill="#f1f2f1" d="M 384.5,69.5 C 396.167,69.5 407.833,69.5 419.5,69.5C 419.5,81.1667 419.5,92.8333 419.5,104.5C 419.5,127.833 419.5,151.167 419.5,174.5C 407.833,174.5 396.167,174.5 384.5,174.5C 384.5,139.5 384.5,104.5 384.5,69.5 Z"/></g>
<g><path style="opacity:1" fill="#bcc2da" d="M 419.5,69.5 C 431.167,69.5 442.833,69.5 454.5,69.5C 454.5,81.1667 454.5,92.8333 454.5,104.5C 442.833,104.5 431.167,104.5 419.5,104.5C 419.5,92.8333 419.5,81.1667 419.5,69.5 Z"/></g>
<g><path style="opacity:1" fill="#818ca7" d="M 454.5,69.5 C 466.167,69.5 477.833,69.5 489.5,69.5C 489.5,92.8333 489.5,116.167 489.5,139.5C 501.167,139.5 512.833,139.5 524.5,139.5C 524.5,151.167 524.5,162.833 524.5,174.5C 512.833,174.5 501.167,174.5 489.5,174.5C 477.833,174.5 466.167,174.5 454.5,174.5C 454.5,151.167 454.5,127.833 454.5,104.5C 454.5,92.8333 454.5,81.1667 454.5,69.5 Z"/></g>
<g><path style="opacity:1" fill="#9297aa" d="M 419.5,104.5 C 431.167,104.5 442.833,104.5 454.5,104.5C 454.5,127.833 454.5,151.167 454.5,174.5C 454.5,186.167 454.5,197.833 454.5,209.5C 442.833,209.5 431.167,209.5 419.5,209.5C 419.5,197.833 419.5,186.167 419.5,174.5C 419.5,151.167 419.5,127.833 419.5,104.5 Z"/></g>
<g><path style="opacity:1" fill="#9297aa" d="M 524.5,139.5 C 536.167,139.5 547.833,139.5 559.5,139.5C 559.5,151.167 559.5,162.833 559.5,174.5C 559.5,186.167 559.5,197.833 559.5,209.5C 547.833,209.5 536.167,209.5 524.5,209.5C 512.833,209.5 501.167,209.5 489.5,209.5C 489.5,197.833 489.5,186.167 489.5,174.5C 501.167,174.5 512.833,174.5 524.5,174.5C 524.5,162.833 524.5,151.167 524.5,139.5 Z"/></g>
<g><path style="opacity:1" fill="#818ca7" d="M 349.5,174.5 C 349.5,186.167 349.5,197.833 349.5,209.5C 337.833,209.5 326.167,209.5 314.5,209.5C 314.5,197.833 314.5,186.167 314.5,174.5C 326.167,174.5 337.833,174.5 349.5,174.5 Z"/></g>
<g><path style="opacity:1" fill="#f1f2f1" d="M 349.5,174.5 C 361.167,174.5 372.833,174.5 384.5,174.5C 384.5,186.167 384.5,197.833 384.5,209.5C 384.5,267.833 384.5,326.167 384.5,384.5C 396.167,384.5 407.833,384.5 419.5,384.5C 419.5,419.5 419.5,454.5 419.5,489.5C 407.833,489.5 396.167,489.5 384.5,489.5C 384.5,466.167 384.5,442.833 384.5,419.5C 372.833,419.5 361.167,419.5 349.5,419.5C 349.5,349.5 349.5,279.5 349.5,209.5C 349.5,197.833 349.5,186.167 349.5,174.5 Z"/></g>
<g><path style="opacity:1" fill="#bcc2da" d="M 384.5,174.5 C 396.167,174.5 407.833,174.5 419.5,174.5C 419.5,186.167 419.5,197.833 419.5,209.5C 407.833,209.5 396.167,209.5 384.5,209.5C 384.5,197.833 384.5,186.167 384.5,174.5 Z"/></g>
<g><path style="opacity:1" fill="#bcc2da" d="M 454.5,174.5 C 466.167,174.5 477.833,174.5 489.5,174.5C 489.5,186.167 489.5,197.833 489.5,209.5C 477.833,209.5 466.167,209.5 454.5,209.5C 454.5,197.833 454.5,186.167 454.5,174.5 Z"/></g>
<g><path style="opacity:1" fill="#818ca7" d="M 559.5,174.5 C 571.167,174.5 582.833,174.5 594.5,174.5C 594.5,186.167 594.5,197.833 594.5,209.5C 582.833,209.5 571.167,209.5 559.5,209.5C 559.5,197.833 559.5,186.167 559.5,174.5 Z"/></g>
<g><path style="opacity:1" fill="#8692ac" d="M 314.5,209.5 C 326.167,209.5 337.833,209.5 349.5,209.5C 349.5,279.5 349.5,349.5 349.5,419.5C 337.833,419.5 326.167,419.5 314.5,419.5C 314.5,349.5 314.5,279.5 314.5,209.5 Z"/></g>
<g><path style="opacity:1" fill="#b5c2dc" d="M 384.5,209.5 C 396.167,209.5 407.833,209.5 419.5,209.5C 419.5,232.833 419.5,256.167 419.5,279.5C 431.167,279.5 442.833,279.5 454.5,279.5C 454.5,256.167 454.5,232.833 454.5,209.5C 466.167,209.5 477.833,209.5 489.5,209.5C 489.5,244.5 489.5,279.5 489.5,314.5C 501.167,314.5 512.833,314.5 524.5,314.5C 524.5,349.5 524.5,384.5 524.5,419.5C 501.167,419.5 477.833,419.5 454.5,419.5C 454.5,431.167 454.5,442.833 454.5,454.5C 454.5,466.167 454.5,477.833 454.5,489.5C 442.833,489.5 431.167,489.5 419.5,489.5C 419.5,454.5 419.5,419.5 419.5,384.5C 407.833,384.5 396.167,384.5 384.5,384.5C 384.5,326.167 384.5,267.833 384.5,209.5 Z"/></g>
<g><path style="opacity:1" fill="#8692ac" d="M 419.5,209.5 C 431.167,209.5 442.833,209.5 454.5,209.5C 454.5,232.833 454.5,256.167 454.5,279.5C 442.833,279.5 431.167,279.5 419.5,279.5C 419.5,256.167 419.5,232.833 419.5,209.5 Z"/></g>
<g><path style="opacity:1" fill="#8692ac" d="M 489.5,209.5 C 501.167,209.5 512.833,209.5 524.5,209.5C 524.5,244.5 524.5,279.5 524.5,314.5C 512.833,314.5 501.167,314.5 489.5,314.5C 489.5,279.5 489.5,244.5 489.5,209.5 Z"/></g>
<g><path style="opacity:1" fill="#8f9fbf" d="M 524.5,209.5 C 536.167,209.5 547.833,209.5 559.5,209.5C 559.5,256.167 559.5,302.833 559.5,349.5C 571.167,349.5 582.833,349.5 594.5,349.5C 594.5,326.167 594.5,302.833 594.5,279.5C 606.167,279.5 617.833,279.5 629.5,279.5C 629.5,314.5 629.5,349.5 629.5,384.5C 617.833,384.5 606.167,384.5 594.5,384.5C 594.5,396.167 594.5,407.833 594.5,419.5C 571.167,419.5 547.833,419.5 524.5,419.5C 524.5,384.5 524.5,349.5 524.5,314.5C 524.5,279.5 524.5,244.5 524.5,209.5 Z"/></g>
<g><path style="opacity:1" fill="#8692ac" d="M 559.5,209.5 C 571.167,209.5 582.833,209.5 594.5,209.5C 594.5,221.167 594.5,232.833 594.5,244.5C 606.167,244.5 617.833,244.5 629.5,244.5C 629.5,256.167 629.5,267.833 629.5,279.5C 617.833,279.5 606.167,279.5 594.5,279.5C 594.5,302.833 594.5,326.167 594.5,349.5C 582.833,349.5 571.167,349.5 559.5,349.5C 559.5,302.833 559.5,256.167 559.5,209.5 Z"/></g>
<g><path style="opacity:1" fill="#4b6646" d="M 909.5,244.5 C 886.167,244.5 862.833,244.5 839.5,244.5C 839.5,232.833 839.5,221.167 839.5,209.5C 862.833,209.5 886.167,209.5 909.5,209.5C 909.5,221.167 909.5,232.833 909.5,244.5 Z"/></g>
<g><path style="opacity:1" fill="#4b6646" d="M 839.5,244.5 C 839.5,256.167 839.5,267.833 839.5,279.5C 827.833,279.5 816.167,279.5 804.5,279.5C 804.5,267.833 804.5,256.167 804.5,244.5C 816.167,244.5 827.833,244.5 839.5,244.5 Z"/></g>
<g><path style="opacity:1" fill="#f5fdf4" d="M 839.5,244.5 C 862.833,244.5 886.167,244.5 909.5,244.5C 909.5,256.167 909.5,267.833 909.5,279.5C 886.167,279.5 862.833,279.5 839.5,279.5C 839.5,267.833 839.5,256.167 839.5,244.5 Z"/></g>
<g><path style="opacity:1" fill="#4b6646" d="M 909.5,244.5 C 932.833,244.5 956.167,244.5 979.5,244.5C 979.5,256.167 979.5,267.833 979.5,279.5C 956.167,279.5 932.833,279.5 909.5,279.5C 909.5,267.833 909.5,256.167 909.5,244.5 Z"/></g>
<g><path style="opacity:1" fill="#8692ac" d="M 629.5,279.5 C 641.167,279.5 652.833,279.5 664.5,279.5C 664.5,302.833 664.5,326.167 664.5,349.5C 664.5,361.167 664.5,372.833 664.5,384.5C 652.833,384.5 641.167,384.5 629.5,384.5C 629.5,349.5 629.5,314.5 629.5,279.5 Z"/></g>
<g><path style="opacity:1" fill="#4b6646" d="M 804.5,279.5 C 804.5,291.167 804.5,302.833 804.5,314.5C 792.833,314.5 781.167,314.5 769.5,314.5C 769.5,302.833 769.5,291.167 769.5,279.5C 781.167,279.5 792.833,279.5 804.5,279.5 Z"/></g>
<g><path style="opacity:1" fill="#f5fdf4" d="M 804.5,279.5 C 816.167,279.5 827.833,279.5 839.5,279.5C 839.5,291.167 839.5,302.833 839.5,314.5C 827.833,314.5 816.167,314.5 804.5,314.5C 804.5,302.833 804.5,291.167 804.5,279.5 Z"/></g>
<g><path style="opacity:1" fill="#b3c5af" d="M 839.5,279.5 C 862.833,279.5 886.167,279.5 909.5,279.5C 909.5,291.167 909.5,302.833 909.5,314.5C 886.167,314.5 862.833,314.5 839.5,314.5C 839.5,302.833 839.5,291.167 839.5,279.5 Z"/></g>
<g><path style="opacity:1" fill="#f6fdf5" d="M 909.5,279.5 C 932.833,279.5 956.167,279.5 979.5,279.5C 979.5,291.167 979.5,302.833 979.5,314.5C 956.167,314.5 932.833,314.5 909.5,314.5C 909.5,302.833 909.5,291.167 909.5,279.5 Z"/></g>
<g><path style="opacity:1" fill="#4b6646" d="M 979.5,279.5 C 1002.83,279.5 1026.17,279.5 1049.5,279.5C 1049.5,291.167 1049.5,302.833 1049.5,314.5C 1026.17,314.5 1002.83,314.5 979.5,314.5C 979.5,302.833 979.5,291.167 979.5,279.5 Z"/></g>
<g><path style="opacity:1" fill="#4b6646" d="M 769.5,314.5 C 769.5,326.167 769.5,337.833 769.5,349.5C 757.833,349.5 746.167,349.5 734.5,349.5C 734.5,337.833 734.5,326.167 734.5,314.5C 746.167,314.5 757.833,314.5 769.5,314.5 Z"/></g>
<g><path style="opacity:1" fill="#f5fdf4" d="M 769.5,314.5 C 781.167,314.5 792.833,314.5 804.5,314.5C 804.5,326.167 804.5,337.833 804.5,349.5C 792.833,349.5 781.167,349.5 769.5,349.5C 769.5,337.833 769.5,326.167 769.5,314.5 Z"/></g>
<g><path style="opacity:1" fill="#b3c5af" d="M 804.5,314.5 C 816.167,314.5 827.833,314.5 839.5,314.5C 839.5,349.5 839.5,384.5 839.5,419.5C 827.833,419.5 816.167,419.5 804.5,419.5C 804.5,407.833 804.5,396.167 804.5,384.5C 792.833,384.5 781.167,384.5 769.5,384.5C 769.5,372.833 769.5,361.167 769.5,349.5C 781.167,349.5 792.833,349.5 804.5,349.5C 804.5,337.833 804.5,326.167 804.5,314.5 Z"/></g>
<g><path style="opacity:1" fill="#708c6b" d="M 839.5,314.5 C 862.833,314.5 886.167,314.5 909.5,314.5C 932.833,314.5 956.167,314.5 979.5,314.5C 979.5,326.167 979.5,337.833 979.5,349.5C 1002.83,349.5 1026.17,349.5 1049.5,349.5C 1049.5,361.167 1049.5,372.833 1049.5,384.5C 1049.5,407.833 1049.5,431.167 1049.5,454.5C 1026.17,454.5 1002.83,454.5 979.5,454.5C 956.167,454.5 932.833,454.5 909.5,454.5C 909.5,442.833 909.5,431.167 909.5,419.5C 886.167,419.5 862.833,419.5 839.5,419.5C 839.5,384.5 839.5,349.5 839.5,314.5 Z"/></g>
<g><path style="opacity:1" fill="#f6fdf4" d="M 979.5,314.5 C 1002.83,314.5 1026.17,314.5 1049.5,314.5C 1049.5,326.167 1049.5,337.833 1049.5,349.5C 1026.17,349.5 1002.83,349.5 979.5,349.5C 979.5,337.833 979.5,326.167 979.5,314.5 Z"/></g>
<g><path style="opacity:1" fill="#4b6646" d="M 1049.5,314.5 C 1072.83,314.5 1096.17,314.5 1119.5,314.5C 1119.5,326.167 1119.5,337.833 1119.5,349.5C 1096.17,349.5 1072.83,349.5 1049.5,349.5C 1049.5,337.833 1049.5,326.167 1049.5,314.5 Z"/></g>
<g><path style="opacity:1" fill="#818ca7" d="M 1434.5,349.5 C 1422.83,349.5 1411.17,349.5 1399.5,349.5C 1399.5,337.833 1399.5,326.167 1399.5,314.5C 1411.17,314.5 1422.83,314.5 1434.5,314.5C 1434.5,326.167 1434.5,337.833 1434.5,349.5 Z"/></g>
<g><path style="opacity:1" fill="#365332" d="M 664.5,349.5 C 687.833,349.5 711.167,349.5 734.5,349.5C 734.5,361.167 734.5,372.833 734.5,384.5C 711.167,384.5 687.833,384.5 664.5,384.5C 664.5,372.833 664.5,361.167 664.5,349.5 Z"/></g>
<g><path style="opacity:1" fill="#f5fdf4" d="M 734.5,349.5 C 746.167,349.5 757.833,349.5 769.5,349.5C 769.5,361.167 769.5,372.833 769.5,384.5C 757.833,384.5 746.167,384.5 734.5,384.5C 734.5,372.833 734.5,361.167 734.5,349.5 Z"/></g>
<g><path style="opacity:1" fill="#b3c5af" d="M 944.5,384.5 C 921.167,384.5 897.833,384.5 874.5,384.5C 874.5,372.833 874.5,361.167 874.5,349.5C 897.833,349.5 921.167,349.5 944.5,349.5C 944.5,361.167 944.5,372.833 944.5,384.5 Z"/></g>
<g><path style="opacity:1" fill="#f5fdf4" d="M 1049.5,349.5 C 1072.83,349.5 1096.17,349.5 1119.5,349.5C 1119.5,361.167 1119.5,372.833 1119.5,384.5C 1096.17,384.5 1072.83,384.5 1049.5,384.5C 1049.5,372.833 1049.5,361.167 1049.5,349.5 Z"/></g>
<g><path style="opacity:1" fill="#4b6646" d="M 1119.5,349.5 C 1142.83,349.5 1166.17,349.5 1189.5,349.5C 1189.5,361.167 1189.5,372.833 1189.5,384.5C 1166.17,384.5 1142.83,384.5 1119.5,384.5C 1119.5,372.833 1119.5,361.167 1119.5,349.5 Z"/></g>
<g><path style="opacity:1" fill="#818ca7" d="M 1399.5,349.5 C 1399.5,372.833 1399.5,396.167 1399.5,419.5C 1387.83,419.5 1376.17,419.5 1364.5,419.5C 1364.5,396.167 1364.5,372.833 1364.5,349.5C 1376.17,349.5 1387.83,349.5 1399.5,349.5 Z"/></g>
<g><path style="opacity:1" fill="#f1f2f1" d="M 1399.5,349.5 C 1411.17,349.5 1422.83,349.5 1434.5,349.5C 1434.5,384.5 1434.5,419.5 1434.5,454.5C 1422.83,454.5 1411.17,454.5 1399.5,454.5C 1399.5,466.167 1399.5,477.833 1399.5,489.5C 1387.83,489.5 1376.17,489.5 1364.5,489.5C 1364.5,501.167 1364.5,512.833 1364.5,524.5C 1352.83,524.5 1341.17,524.5 1329.5,524.5C 1329.5,536.167 1329.5,547.833 1329.5,559.5C 1306.17,559.5 1282.83,559.5 1259.5,559.5C 1259.5,547.833 1259.5,536.167 1259.5,524.5C 1271.17,524.5 1282.83,524.5 1294.5,524.5C 1294.5,512.833 1294.5,501.167 1294.5,489.5C 1306.17,489.5 1317.83,489.5 1329.5,489.5C 1329.5,477.833 1329.5,466.167 1329.5,454.5C 1341.17,454.5 1352.83,454.5 1364.5,454.5C 1364.5,442.833 1364.5,431.167 1364.5,419.5C 1376.17,419.5 1387.83,419.5 1399.5,419.5C 1399.5,396.167 1399.5,372.833 1399.5,349.5 Z"/></g>
<g><path style="opacity:1" fill="#818ca7" d="M 1434.5,349.5 C 1446.17,349.5 1457.83,349.5 1469.5,349.5C 1469.5,384.5 1469.5,419.5 1469.5,454.5C 1457.83,454.5 1446.17,454.5 1434.5,454.5C 1434.5,419.5 1434.5,384.5 1434.5,349.5 Z"/></g>
<g><path style="opacity:1" fill="#b47123" d="M 629.5,384.5 C 641.167,384.5 652.833,384.5 664.5,384.5C 664.5,396.167 664.5,407.833 664.5,419.5C 641.167,419.5 617.833,419.5 594.5,419.5C 594.5,407.833 594.5,396.167 594.5,384.5C 606.167,384.5 617.833,384.5 629.5,384.5 Z"/></g>
<g><path style="opacity:1" fill="#f4dc78" d="M 664.5,384.5 C 687.833,384.5 711.167,384.5 734.5,384.5C 734.5,396.167 734.5,407.833 734.5,419.5C 757.833,419.5 781.167,419.5 804.5,419.5C 804.5,431.167 804.5,442.833 804.5,454.5C 816.167,454.5 827.833,454.5 839.5,454.5C 851.167,454.5 862.833,454.5 874.5,454.5C 874.5,466.167 874.5,477.833 874.5,489.5C 874.5,501.167 874.5,512.833 874.5,524.5C 851.167,524.5 827.833,524.5 804.5,524.5C 804.5,536.167 804.5,547.833 804.5,559.5C 781.167,559.5 757.833,559.5 734.5,559.5C 722.833,559.5 711.167,559.5 699.5,559.5C 687.833,559.5 676.167,559.5 664.5,559.5C 664.5,547.833 664.5,536.167 664.5,524.5C 652.833,524.5 641.167,524.5 629.5,524.5C 617.833,524.5 606.167,524.5 594.5,524.5C 594.5,512.833 594.5,501.167 594.5,489.5C 571.167,489.5 547.833,489.5 524.5,489.5C 524.5,477.833 524.5,466.167 524.5,454.5C 547.833,454.5 571.167,454.5 594.5,454.5C 594.5,442.833 594.5,431.167 594.5,419.5C 617.833,419.5 641.167,419.5 664.5,419.5C 664.5,407.833 664.5,396.167 664.5,384.5 Z"/></g>
<g><path style="opacity:1" fill="#889b84" d="M 734.5,384.5 C 746.167,384.5 757.833,384.5 769.5,384.5C 781.167,384.5 792.833,384.5 804.5,384.5C 804.5,396.167 804.5,407.833 804.5,419.5C 781.167,419.5 757.833,419.5 734.5,419.5C 734.5,407.833 734.5,396.167 734.5,384.5 Z"/></g>
<g><path style="opacity:1" fill="#b3c4af" d="M 944.5,384.5 C 967.833,384.5 991.167,384.5 1014.5,384.5C 1014.5,396.167 1014.5,407.833 1014.5,419.5C 991.167,419.5 967.833,419.5 944.5,419.5C 944.5,407.833 944.5,396.167 944.5,384.5 Z"/></g>
<g><path style="opacity:1" fill="#b3c5af" d="M 1049.5,384.5 C 1072.83,384.5 1096.17,384.5 1119.5,384.5C 1119.5,407.833 1119.5,431.167 1119.5,454.5C 1107.83,454.5 1096.17,454.5 1084.5,454.5C 1084.5,466.167 1084.5,477.833 1084.5,489.5C 1072.83,489.5 1061.17,489.5 1049.5,489.5C 1037.83,489.5 1026.17,489.5 1014.5,489.5C 1002.83,489.5 991.167,489.5 979.5,489.5C 979.5,477.833 979.5,466.167 979.5,454.5C 1002.83,454.5 1026.17,454.5 1049.5,454.5C 1049.5,431.167 1049.5,407.833 1049.5,384.5 Z"/></g>
<g><path style="opacity:1" fill="#f5fdf4" d="M 1119.5,384.5 C 1142.83,384.5 1166.17,384.5 1189.5,384.5C 1189.5,396.167 1189.5,407.833 1189.5,419.5C 1177.83,419.5 1166.17,419.5 1154.5,419.5C 1154.5,431.167 1154.5,442.833 1154.5,454.5C 1142.83,454.5 1131.17,454.5 1119.5,454.5C 1119.5,431.167 1119.5,407.833 1119.5,384.5 Z"/></g>
<g><path style="opacity:1" fill="#4b6646" d="M 1189.5,384.5 C 1212.83,384.5 1236.17,384.5 1259.5,384.5C 1259.5,396.167 1259.5,407.833 1259.5,419.5C 1247.83,419.5 1236.17,419.5 1224.5,419.5C 1224.5,454.5 1224.5,489.5 1224.5,524.5C 1212.83,524.5 1201.17,524.5 1189.5,524.5C 1189.5,536.167 1189.5,547.833 1189.5,559.5C 1142.83,559.5 1096.17,559.5 1049.5,559.5C 1049.5,571.167 1049.5,582.833 1049.5,594.5C 1026.17,594.5 1002.83,594.5 979.5,594.5C 979.5,582.833 979.5,571.167 979.5,559.5C 991.167,559.5 1002.83,559.5 1014.5,559.5C 1014.5,547.833 1014.5,536.167 1014.5,524.5C 1026.17,524.5 1037.83,524.5 1049.5,524.5C 1061.17,524.5 1072.83,524.5 1084.5,524.5C 1084.5,512.833 1084.5,501.167 1084.5,489.5C 1096.17,489.5 1107.83,489.5 1119.5,489.5C 1119.5,477.833 1119.5,466.167 1119.5,454.5C 1131.17,454.5 1142.83,454.5 1154.5,454.5C 1154.5,442.833 1154.5,431.167 1154.5,419.5C 1166.17,419.5 1177.83,419.5 1189.5,419.5C 1189.5,407.833 1189.5,396.167 1189.5,384.5 Z"/></g>
<g><path style="opacity:1" fill="#8692ac" d="M 349.5,419.5 C 361.167,419.5 372.833,419.5 384.5,419.5C 384.5,442.833 384.5,466.167 384.5,489.5C 372.833,489.5 361.167,489.5 349.5,489.5C 349.5,466.167 349.5,442.833 349.5,419.5 Z"/></g>
<g><path style="opacity:1" fill="#8e9fbf" d="M 524.5,419.5 C 524.5,431.167 524.5,442.833 524.5,454.5C 501.167,454.5 477.833,454.5 454.5,454.5C 454.5,442.833 454.5,431.167 454.5,419.5C 477.833,419.5 501.167,419.5 524.5,419.5 Z"/></g>
<g><path style="opacity:1" fill="#b47123" d="M 524.5,419.5 C 547.833,419.5 571.167,419.5 594.5,419.5C 594.5,431.167 594.5,442.833 594.5,454.5C 571.167,454.5 547.833,454.5 524.5,454.5C 524.5,442.833 524.5,431.167 524.5,419.5 Z"/></g>
<g><path style="opacity:1" fill="#52714e" d="M 804.5,419.5 C 816.167,419.5 827.833,419.5 839.5,419.5C 839.5,431.167 839.5,442.833 839.5,454.5C 827.833,454.5 816.167,454.5 804.5,454.5C 804.5,442.833 804.5,431.167 804.5,419.5 Z"/></g>
<g><path style="opacity:1" fill="#889b84" d="M 839.5,419.5 C 862.833,419.5 886.167,419.5 909.5,419.5C 909.5,431.167 909.5,442.833 909.5,454.5C 897.833,454.5 886.167,454.5 874.5,454.5C 862.833,454.5 851.167,454.5 839.5,454.5C 839.5,442.833 839.5,431.167 839.5,419.5 Z"/></g>
<g><path style="opacity:1" fill="#818ca7" d="M 1364.5,419.5 C 1364.5,431.167 1364.5,442.833 1364.5,454.5C 1352.83,454.5 1341.17,454.5 1329.5,454.5C 1329.5,442.833 1329.5,431.167 1329.5,419.5C 1341.17,419.5 1352.83,419.5 1364.5,419.5 Z"/></g>
<g><path style="opacity:1" fill="#365332" d="M 454.5,454.5 C 477.833,454.5 501.167,454.5 524.5,454.5C 524.5,466.167 524.5,477.833 524.5,489.5C 501.167,489.5 477.833,489.5 454.5,489.5C 454.5,477.833 454.5,466.167 454.5,454.5 Z"/></g>
<g><path style="opacity:1" fill="#52714e" d="M 874.5,454.5 C 886.167,454.5 897.833,454.5 909.5,454.5C 909.5,466.167 909.5,477.833 909.5,489.5C 897.833,489.5 886.167,489.5 874.5,489.5C 874.5,477.833 874.5,466.167 874.5,454.5 Z"/></g>
<g><path style="opacity:1" fill="#889b84" d="M 909.5,454.5 C 932.833,454.5 956.167,454.5 979.5,454.5C 979.5,466.167 979.5,477.833 979.5,489.5C 991.167,489.5 1002.83,489.5 1014.5,489.5C 1014.5,501.167 1014.5,512.833 1014.5,524.5C 1002.83,524.5 991.167,524.5 979.5,524.5C 967.833,524.5 956.167,524.5 944.5,524.5C 944.5,512.833 944.5,501.167 944.5,489.5C 932.833,489.5 921.167,489.5 909.5,489.5C 909.5,477.833 909.5,466.167 909.5,454.5 Z"/></g>
<g><path style="opacity:1" fill="#f5fdf4" d="M 1119.5,454.5 C 1119.5,466.167 1119.5,477.833 1119.5,489.5C 1107.83,489.5 1096.17,489.5 1084.5,489.5C 1084.5,477.833 1084.5,466.167 1084.5,454.5C 1096.17,454.5 1107.83,454.5 1119.5,454.5 Z"/></g>
<g><path style="opacity:1" fill="#818ca7" d="M 1329.5,454.5 C 1329.5,466.167 1329.5,477.833 1329.5,489.5C 1317.83,489.5 1306.17,489.5 1294.5,489.5C 1294.5,477.833 1294.5,466.167 1294.5,454.5C 1306.17,454.5 1317.83,454.5 1329.5,454.5 Z"/></g>
<g><path style="opacity:1" fill="#818ca7" d="M 1434.5,454.5 C 1434.5,477.833 1434.5,501.167 1434.5,524.5C 1422.83,524.5 1411.17,524.5 1399.5,524.5C 1399.5,512.833 1399.5,501.167 1399.5,489.5C 1399.5,477.833 1399.5,466.167 1399.5,454.5C 1411.17,454.5 1422.83,454.5 1434.5,454.5 Z"/></g>
<g><path style="opacity:1" fill="#365332" d="M 349.5,489.5 C 361.167,489.5 372.833,489.5 384.5,489.5C 396.167,489.5 407.833,489.5 419.5,489.5C 431.167,489.5 442.833,489.5 454.5,489.5C 454.5,501.167 454.5,512.833 454.5,524.5C 431.167,524.5 407.833,524.5 384.5,524.5C 372.833,524.5 361.167,524.5 349.5,524.5C 349.5,512.833 349.5,501.167 349.5,489.5 Z"/></g>
<g><path style="opacity:1" fill="#bcc4ba" d="M 454.5,489.5 C 477.833,489.5 501.167,489.5 524.5,489.5C 524.5,501.167 524.5,512.833 524.5,524.5C 501.167,524.5 477.833,524.5 454.5,524.5C 454.5,512.833 454.5,501.167 454.5,489.5 Z"/></g>
<g><path style="opacity:1" fill="#53714f" d="M 524.5,489.5 C 547.833,489.5 571.167,489.5 594.5,489.5C 594.5,501.167 594.5,512.833 594.5,524.5C 582.833,524.5 571.167,524.5 559.5,524.5C 559.5,536.167 559.5,547.833 559.5,559.5C 582.833,559.5 606.167,559.5 629.5,559.5C 629.5,571.167 629.5,582.833 629.5,594.5C 652.833,594.5 676.167,594.5 699.5,594.5C 699.5,582.833 699.5,571.167 699.5,559.5C 711.167,559.5 722.833,559.5 734.5,559.5C 734.5,571.167 734.5,582.833 734.5,594.5C 734.5,606.167 734.5,617.833 734.5,629.5C 722.833,629.5 711.167,629.5 699.5,629.5C 664.5,629.5 629.5,629.5 594.5,629.5C 594.5,617.833 594.5,606.167 594.5,594.5C 571.167,594.5 547.833,594.5 524.5,594.5C 524.5,571.167 524.5,547.833 524.5,524.5C 524.5,512.833 524.5,501.167 524.5,489.5 Z"/></g>
<g><path style="opacity:1" fill="#fbf7b2" d="M 874.5,489.5 C 886.167,489.5 897.833,489.5 909.5,489.5C 921.167,489.5 932.833,489.5 944.5,489.5C 944.5,501.167 944.5,512.833 944.5,524.5C 956.167,524.5 967.833,524.5 979.5,524.5C 979.5,536.167 979.5,547.833 979.5,559.5C 967.833,559.5 956.167,559.5 944.5,559.5C 944.5,571.167 944.5,582.833 944.5,594.5C 921.167,594.5 897.833,594.5 874.5,594.5C 874.5,606.167 874.5,617.833 874.5,629.5C 851.167,629.5 827.833,629.5 804.5,629.5C 804.5,617.833 804.5,606.167 804.5,594.5C 804.5,582.833 804.5,571.167 804.5,559.5C 804.5,547.833 804.5,536.167 804.5,524.5C 827.833,524.5 851.167,524.5 874.5,524.5C 874.5,512.833 874.5,501.167 874.5,489.5 Z"/></g>
<g><path style="opacity:1" fill="#bcc4ba" d="M 1014.5,489.5 C 1026.17,489.5 1037.83,489.5 1049.5,489.5C 1049.5,501.167 1049.5,512.833 1049.5,524.5C 1037.83,524.5 1026.17,524.5 1014.5,524.5C 1014.5,512.833 1014.5,501.167 1014.5,489.5 Z"/></g>
<g><path style="opacity:1" fill="#f5fdf4" d="M 1049.5,489.5 C 1061.17,489.5 1072.83,489.5 1084.5,489.5C 1084.5,501.167 1084.5,512.833 1084.5,524.5C 1072.83,524.5 1061.17,524.5 1049.5,524.5C 1049.5,512.833 1049.5,501.167 1049.5,489.5 Z"/></g>
<g><path style="opacity:1" fill="#818ca7" d="M 1294.5,489.5 C 1294.5,501.167 1294.5,512.833 1294.5,524.5C 1282.83,524.5 1271.17,524.5 1259.5,524.5C 1259.5,512.833 1259.5,501.167 1259.5,489.5C 1271.17,489.5 1282.83,489.5 1294.5,489.5 Z"/></g>
<g><path style="opacity:1" fill="#bcc2da" d="M 1399.5,489.5 C 1399.5,501.167 1399.5,512.833 1399.5,524.5C 1387.83,524.5 1376.17,524.5 1364.5,524.5C 1364.5,512.833 1364.5,501.167 1364.5,489.5C 1376.17,489.5 1387.83,489.5 1399.5,489.5 Z"/></g>
<g><path style="opacity:1" fill="#4b6646" d="M 349.5,524.5 C 349.5,536.167 349.5,547.833 349.5,559.5C 314.5,559.5 279.5,559.5 244.5,559.5C 244.5,547.833 244.5,536.167 244.5,524.5C 279.5,524.5 314.5,524.5 349.5,524.5 Z"/></g>
<g><path style="opacity:1" fill="#f5fdf4" d="M 349.5,524.5 C 361.167,524.5 372.833,524.5 384.5,524.5C 384.5,536.167 384.5,547.833 384.5,559.5C 372.833,559.5 361.167,559.5 349.5,559.5C 349.5,547.833 349.5,536.167 349.5,524.5 Z"/></g>
<g><path style="opacity:1" fill="#bec5bc" d="M 384.5,524.5 C 407.833,524.5 431.167,524.5 454.5,524.5C 454.5,536.167 454.5,547.833 454.5,559.5C 431.167,559.5 407.833,559.5 384.5,559.5C 384.5,547.833 384.5,536.167 384.5,524.5 Z"/></g>
<g><path style="opacity:1" fill="#889b84" d="M 454.5,524.5 C 477.833,524.5 501.167,524.5 524.5,524.5C 524.5,547.833 524.5,571.167 524.5,594.5C 501.167,594.5 477.833,594.5 454.5,594.5C 454.5,582.833 454.5,571.167 454.5,559.5C 454.5,547.833 454.5,536.167 454.5,524.5 Z"/></g>
<g><path style="opacity:1" fill="#889b84" d="M 594.5,524.5 C 606.167,524.5 617.833,524.5 629.5,524.5C 629.5,536.167 629.5,547.833 629.5,559.5C 606.167,559.5 582.833,559.5 559.5,559.5C 559.5,547.833 559.5,536.167 559.5,524.5C 571.167,524.5 582.833,524.5 594.5,524.5 Z"/></g>
<g><path style="opacity:1" fill="#52714e" d="M 629.5,524.5 C 641.167,524.5 652.833,524.5 664.5,524.5C 664.5,536.167 664.5,547.833 664.5,559.5C 652.833,559.5 641.167,559.5 629.5,559.5C 629.5,547.833 629.5,536.167 629.5,524.5 Z"/></g>
<g><path style="opacity:1" fill="#bcc4ba" d="M 979.5,524.5 C 991.167,524.5 1002.83,524.5 1014.5,524.5C 1014.5,536.167 1014.5,547.833 1014.5,559.5C 1002.83,559.5 991.167,559.5 979.5,559.5C 979.5,547.833 979.5,536.167 979.5,524.5 Z"/></g>
<g><path style="opacity:1" fill="#8692ac" d="M 1224.5,524.5 C 1236.17,524.5 1247.83,524.5 1259.5,524.5C 1259.5,536.167 1259.5,547.833 1259.5,559.5C 1236.17,559.5 1212.83,559.5 1189.5,559.5C 1189.5,547.833 1189.5,536.167 1189.5,524.5C 1201.17,524.5 1212.83,524.5 1224.5,524.5 Z"/></g>
<g><path style="opacity:1" fill="#818ca7" d="M 1364.5,524.5 C 1376.17,524.5 1387.83,524.5 1399.5,524.5C 1399.5,547.833 1399.5,571.167 1399.5,594.5C 1387.83,594.5 1376.17,594.5 1364.5,594.5C 1364.5,582.833 1364.5,571.167 1364.5,559.5C 1352.83,559.5 1341.17,559.5 1329.5,559.5C 1329.5,547.833 1329.5,536.167 1329.5,524.5C 1341.17,524.5 1352.83,524.5 1364.5,524.5 Z"/></g>
<g><path style="opacity:1" fill="#4b6646" d="M 244.5,559.5 C 244.5,571.167 244.5,582.833 244.5,594.5C 232.833,594.5 221.167,594.5 209.5,594.5C 209.5,606.167 209.5,617.833 209.5,629.5C 197.833,629.5 186.167,629.5 174.5,629.5C 174.5,606.167 174.5,582.833 174.5,559.5C 197.833,559.5 221.167,559.5 244.5,559.5 Z"/></g>
<g><path style="opacity:1" fill="#f5fdf4" d="M 244.5,559.5 C 279.5,559.5 314.5,559.5 349.5,559.5C 349.5,571.167 349.5,582.833 349.5,594.5C 361.167,594.5 372.833,594.5 384.5,594.5C 384.5,606.167 384.5,617.833 384.5,629.5C 361.167,629.5 337.833,629.5 314.5,629.5C 314.5,617.833 314.5,606.167 314.5,594.5C 291.167,594.5 267.833,594.5 244.5,594.5C 244.5,582.833 244.5,571.167 244.5,559.5 Z"/></g>
<g><path style="opacity:1" fill="#b3c5af" d="M 349.5,559.5 C 361.167,559.5 372.833,559.5 384.5,559.5C 384.5,571.167 384.5,582.833 384.5,594.5C 372.833,594.5 361.167,594.5 349.5,594.5C 349.5,582.833 349.5,571.167 349.5,559.5 Z"/></g>
<g><path style="opacity:1" fill="#708b6b" d="M 384.5,559.5 C 407.833,559.5 431.167,559.5 454.5,559.5C 454.5,571.167 454.5,582.833 454.5,594.5C 477.833,594.5 501.167,594.5 524.5,594.5C 524.5,606.167 524.5,617.833 524.5,629.5C 547.833,629.5 571.167,629.5 594.5,629.5C 594.5,641.167 594.5,652.833 594.5,664.5C 571.167,664.5 547.833,664.5 524.5,664.5C 512.833,664.5 501.167,664.5 489.5,664.5C 489.5,652.833 489.5,641.167 489.5,629.5C 477.833,629.5 466.167,629.5 454.5,629.5C 442.833,629.5 431.167,629.5 419.5,629.5C 419.5,617.833 419.5,606.167 419.5,594.5C 407.833,594.5 396.167,594.5 384.5,594.5C 384.5,582.833 384.5,571.167 384.5,559.5 Z"/></g>
<g><path style="opacity:1" fill="#889b84" d="M 629.5,559.5 C 641.167,559.5 652.833,559.5 664.5,559.5C 676.167,559.5 687.833,559.5 699.5,559.5C 699.5,571.167 699.5,582.833 699.5,594.5C 676.167,594.5 652.833,594.5 629.5,594.5C 629.5,582.833 629.5,571.167 629.5,559.5 Z"/></g>
<g><path style="opacity:1" fill="#cf8c3d" d="M 734.5,559.5 C 757.833,559.5 781.167,559.5 804.5,559.5C 804.5,571.167 804.5,582.833 804.5,594.5C 781.167,594.5 757.833,594.5 734.5,594.5C 734.5,582.833 734.5,571.167 734.5,559.5 Z"/></g>
<g><path style="opacity:1" fill="#cf8d3c" d="M 979.5,559.5 C 979.5,571.167 979.5,582.833 979.5,594.5C 967.833,594.5 956.167,594.5 944.5,594.5C 944.5,582.833 944.5,571.167 944.5,559.5C 956.167,559.5 967.833,559.5 979.5,559.5 Z"/></g>
<g><path style="opacity:1" fill="#8692ac" d="M 1189.5,559.5 C 1189.5,571.167 1189.5,582.833 1189.5,594.5C 1142.83,594.5 1096.17,594.5 1049.5,594.5C 1049.5,582.833 1049.5,571.167 1049.5,559.5C 1096.17,559.5 1142.83,559.5 1189.5,559.5 Z"/></g>
<g><path style="opacity:1" fill="#fefffd" d="M 1189.5,559.5 C 1212.83,559.5 1236.17,559.5 1259.5,559.5C 1259.5,571.167 1259.5,582.833 1259.5,594.5C 1247.83,594.5 1236.17,594.5 1224.5,594.5C 1224.5,606.167 1224.5,617.833 1224.5,629.5C 1166.17,629.5 1107.83,629.5 1049.5,629.5C 1049.5,617.833 1049.5,606.167 1049.5,594.5C 1096.17,594.5 1142.83,594.5 1189.5,594.5C 1189.5,582.833 1189.5,571.167 1189.5,559.5 Z"/></g>
<g><path style="opacity:1" fill="#bcc2da" d="M 1259.5,559.5 C 1282.83,559.5 1306.17,559.5 1329.5,559.5C 1341.17,559.5 1352.83,559.5 1364.5,559.5C 1364.5,571.167 1364.5,582.833 1364.5,594.5C 1352.83,594.5 1341.17,594.5 1329.5,594.5C 1329.5,606.167 1329.5,617.833 1329.5,629.5C 1306.17,629.5 1282.83,629.5 1259.5,629.5C 1259.5,617.833 1259.5,606.167 1259.5,594.5C 1259.5,582.833 1259.5,571.167 1259.5,559.5 Z"/></g>
<g><path style="opacity:1" fill="#708c6b" d="M 244.5,594.5 C 244.5,606.167 244.5,617.833 244.5,629.5C 232.833,629.5 221.167,629.5 209.5,629.5C 209.5,617.833 209.5,606.167 209.5,594.5C 221.167,594.5 232.833,594.5 244.5,594.5 Z"/></g>
<g><path style="opacity:1" fill="#4b6646" d="M 244.5,594.5 C 267.833,594.5 291.167,594.5 314.5,594.5C 314.5,606.167 314.5,617.833 314.5,629.5C 291.167,629.5 267.833,629.5 244.5,629.5C 244.5,617.833 244.5,606.167 244.5,594.5 Z"/></g>
<g><path style="opacity:1" fill="#b3c5af" d="M 384.5,594.5 C 396.167,594.5 407.833,594.5 419.5,594.5C 419.5,606.167 419.5,617.833 419.5,629.5C 407.833,629.5 396.167,629.5 384.5,629.5C 384.5,617.833 384.5,606.167 384.5,594.5 Z"/></g>
<g><path style="opacity:1" fill="#889b84" d="M 524.5,594.5 C 547.833,594.5 571.167,594.5 594.5,594.5C 594.5,606.167 594.5,617.833 594.5,629.5C 571.167,629.5 547.833,629.5 524.5,629.5C 524.5,617.833 524.5,606.167 524.5,594.5 Z"/></g>
<g><path style="opacity:1" fill="#889b84" d="M 734.5,594.5 C 757.833,594.5 781.167,594.5 804.5,594.5C 804.5,606.167 804.5,617.833 804.5,629.5C 781.167,629.5 757.833,629.5 734.5,629.5C 734.5,617.833 734.5,606.167 734.5,594.5 Z"/></g>
<g><path style="opacity:1" fill="#cf8d3c" d="M 944.5,594.5 C 944.5,606.167 944.5,617.833 944.5,629.5C 932.833,629.5 921.167,629.5 909.5,629.5C 909.5,641.167 909.5,652.833 909.5,664.5C 897.833,664.5 886.167,664.5 874.5,664.5C 874.5,676.167 874.5,687.833 874.5,699.5C 874.5,722.833 874.5,746.167 874.5,769.5C 874.5,781.167 874.5,792.833 874.5,804.5C 851.167,804.5 827.833,804.5 804.5,804.5C 804.5,781.167 804.5,757.833 804.5,734.5C 804.5,722.833 804.5,711.167 804.5,699.5C 804.5,687.833 804.5,676.167 804.5,664.5C 804.5,652.833 804.5,641.167 804.5,629.5C 827.833,629.5 851.167,629.5 874.5,629.5C 874.5,617.833 874.5,606.167 874.5,594.5C 897.833,594.5 921.167,594.5 944.5,594.5 Z"/></g>
<g><path style="opacity:1" fill="#8692ac" d="M 944.5,594.5 C 956.167,594.5 967.833,594.5 979.5,594.5C 1002.83,594.5 1026.17,594.5 1049.5,594.5C 1049.5,606.167 1049.5,617.833 1049.5,629.5C 1014.5,629.5 979.5,629.5 944.5,629.5C 944.5,617.833 944.5,606.167 944.5,594.5 Z"/></g>
<g><path style="opacity:1" fill="#b5c2dc" d="M 1259.5,594.5 C 1259.5,606.167 1259.5,617.833 1259.5,629.5C 1259.5,641.167 1259.5,652.833 1259.5,664.5C 1247.83,664.5 1236.17,664.5 1224.5,664.5C 1201.17,664.5 1177.83,664.5 1154.5,664.5C 1154.5,676.167 1154.5,687.833 1154.5,699.5C 1096.17,699.5 1037.83,699.5 979.5,699.5C 979.5,711.167 979.5,722.833 979.5,734.5C 967.833,734.5 956.167,734.5 944.5,734.5C 944.5,746.167 944.5,757.833 944.5,769.5C 932.833,769.5 921.167,769.5 909.5,769.5C 909.5,746.167 909.5,722.833 909.5,699.5C 921.167,699.5 932.833,699.5 944.5,699.5C 944.5,687.833 944.5,676.167 944.5,664.5C 979.5,664.5 1014.5,664.5 1049.5,664.5C 1049.5,652.833 1049.5,641.167 1049.5,629.5C 1107.83,629.5 1166.17,629.5 1224.5,629.5C 1224.5,617.833 1224.5,606.167 1224.5,594.5C 1236.17,594.5 1247.83,594.5 1259.5,594.5 Z"/></g>
<g><path style="opacity:1" fill="#818ca7" d="M 1364.5,594.5 C 1364.5,606.167 1364.5,617.833 1364.5,629.5C 1352.83,629.5 1341.17,629.5 1329.5,629.5C 1329.5,617.833 1329.5,606.167 1329.5,594.5C 1341.17,594.5 1352.83,594.5 1364.5,594.5 Z"/></g>
<g><path style="opacity:1" fill="#4b6646" d="M 209.5,629.5 C 221.167,629.5 232.833,629.5 244.5,629.5C 244.5,664.5 244.5,699.5 244.5,734.5C 232.833,734.5 221.167,734.5 209.5,734.5C 209.5,699.5 209.5,664.5 209.5,629.5 Z"/></g>
<g><path style="opacity:1" fill="#718b6c" d="M 244.5,629.5 C 267.833,629.5 291.167,629.5 314.5,629.5C 314.5,641.167 314.5,652.833 314.5,664.5C 337.833,664.5 361.167,664.5 384.5,664.5C 384.5,676.167 384.5,687.833 384.5,699.5C 361.167,699.5 337.833,699.5 314.5,699.5C 314.5,711.167 314.5,722.833 314.5,734.5C 337.833,734.5 361.167,734.5 384.5,734.5C 384.5,746.167 384.5,757.833 384.5,769.5C 361.167,769.5 337.833,769.5 314.5,769.5C 314.5,781.167 314.5,792.833 314.5,804.5C 291.167,804.5 267.833,804.5 244.5,804.5C 244.5,792.833 244.5,781.167 244.5,769.5C 232.833,769.5 221.167,769.5 209.5,769.5C 209.5,757.833 209.5,746.167 209.5,734.5C 221.167,734.5 232.833,734.5 244.5,734.5C 244.5,699.5 244.5,664.5 244.5,629.5 Z"/></g>
<g><path style="opacity:1" fill="#4b6646" d="M 314.5,629.5 C 337.833,629.5 361.167,629.5 384.5,629.5C 384.5,641.167 384.5,652.833 384.5,664.5C 361.167,664.5 337.833,664.5 314.5,664.5C 314.5,652.833 314.5,641.167 314.5,629.5 Z"/></g>
<g><path style="opacity:1" fill="#f5fdf4" d="M 384.5,629.5 C 396.167,629.5 407.833,629.5 419.5,629.5C 431.167,629.5 442.833,629.5 454.5,629.5C 454.5,641.167 454.5,652.833 454.5,664.5C 431.167,664.5 407.833,664.5 384.5,664.5C 384.5,652.833 384.5,641.167 384.5,629.5 Z"/></g>
<g><path style="opacity:1" fill="#b3c5af" d="M 454.5,629.5 C 466.167,629.5 477.833,629.5 489.5,629.5C 489.5,641.167 489.5,652.833 489.5,664.5C 477.833,664.5 466.167,664.5 454.5,664.5C 454.5,652.833 454.5,641.167 454.5,629.5 Z"/></g>
<g><path style="opacity:1" fill="#889b84" d="M 594.5,629.5 C 629.5,629.5 664.5,629.5 699.5,629.5C 699.5,641.167 699.5,652.833 699.5,664.5C 687.833,664.5 676.167,664.5 664.5,664.5C 641.167,664.5 617.833,664.5 594.5,664.5C 594.5,652.833 594.5,641.167 594.5,629.5 Z"/></g>
<g><path style="opacity:1" fill="#bcc4ba" d="M 699.5,629.5 C 711.167,629.5 722.833,629.5 734.5,629.5C 757.833,629.5 781.167,629.5 804.5,629.5C 804.5,641.167 804.5,652.833 804.5,664.5C 769.5,664.5 734.5,664.5 699.5,664.5C 699.5,652.833 699.5,641.167 699.5,629.5 Z"/></g>
<g><path style="opacity:1" fill="#8692ac" d="M 944.5,629.5 C 944.5,641.167 944.5,652.833 944.5,664.5C 932.833,664.5 921.167,664.5 909.5,664.5C 909.5,652.833 909.5,641.167 909.5,629.5C 921.167,629.5 932.833,629.5 944.5,629.5 Z"/></g>
<g><path style="opacity:1" fill="#fefffd" d="M 944.5,629.5 C 979.5,629.5 1014.5,629.5 1049.5,629.5C 1049.5,641.167 1049.5,652.833 1049.5,664.5C 1014.5,664.5 979.5,664.5 944.5,664.5C 944.5,652.833 944.5,641.167 944.5,629.5 Z"/></g>
<g><path style="opacity:1" fill="#818ca7" d="M 1259.5,629.5 C 1282.83,629.5 1306.17,629.5 1329.5,629.5C 1329.5,641.167 1329.5,652.833 1329.5,664.5C 1306.17,664.5 1282.83,664.5 1259.5,664.5C 1259.5,652.833 1259.5,641.167 1259.5,629.5 Z"/></g>
<g><path style="opacity:1" fill="#4b6646" d="M 384.5,664.5 C 407.833,664.5 431.167,664.5 454.5,664.5C 454.5,676.167 454.5,687.833 454.5,699.5C 442.833,699.5 431.167,699.5 419.5,699.5C 407.833,699.5 396.167,699.5 384.5,699.5C 384.5,687.833 384.5,676.167 384.5,664.5 Z"/></g>
<g><path style="opacity:1" fill="#f5fdf4" d="M 454.5,664.5 C 466.167,664.5 477.833,664.5 489.5,664.5C 501.167,664.5 512.833,664.5 524.5,664.5C 524.5,676.167 524.5,687.833 524.5,699.5C 501.167,699.5 477.833,699.5 454.5,699.5C 454.5,687.833 454.5,676.167 454.5,664.5 Z"/></g>
<g><path style="opacity:1" fill="#b3c5af" d="M 524.5,664.5 C 547.833,664.5 571.167,664.5 594.5,664.5C 594.5,676.167 594.5,687.833 594.5,699.5C 571.167,699.5 547.833,699.5 524.5,699.5C 524.5,687.833 524.5,676.167 524.5,664.5 Z"/></g>
<g><path style="opacity:1" fill="#f5fdf4" d="M 594.5,664.5 C 617.833,664.5 641.167,664.5 664.5,664.5C 664.5,676.167 664.5,687.833 664.5,699.5C 641.167,699.5 617.833,699.5 594.5,699.5C 594.5,687.833 594.5,676.167 594.5,664.5 Z"/></g>
<g><path style="opacity:1" fill="#bcc4ba" d="M 664.5,664.5 C 676.167,664.5 687.833,664.5 699.5,664.5C 699.5,676.167 699.5,687.833 699.5,699.5C 687.833,699.5 676.167,699.5 664.5,699.5C 664.5,687.833 664.5,676.167 664.5,664.5 Z"/></g>
<g><path style="opacity:1" fill="#4b6646" d="M 699.5,664.5 C 734.5,664.5 769.5,664.5 804.5,664.5C 804.5,676.167 804.5,687.833 804.5,699.5C 769.5,699.5 734.5,699.5 699.5,699.5C 699.5,687.833 699.5,676.167 699.5,664.5 Z"/></g>
<g><path style="opacity:1" fill="#8692ac" d="M 909.5,664.5 C 909.5,676.167 909.5,687.833 909.5,699.5C 897.833,699.5 886.167,699.5 874.5,699.5C 874.5,687.833 874.5,676.167 874.5,664.5C 886.167,664.5 897.833,664.5 909.5,664.5 Z"/></g>
<g><path style="opacity:1" fill="#fefffd" d="M 909.5,664.5 C 921.167,664.5 932.833,664.5 944.5,664.5C 944.5,676.167 944.5,687.833 944.5,699.5C 932.833,699.5 921.167,699.5 909.5,699.5C 909.5,687.833 909.5,676.167 909.5,664.5 Z"/></g>
<g><path style="opacity:1" fill="#8f9fbf" d="M 1224.5,664.5 C 1224.5,676.167 1224.5,687.833 1224.5,699.5C 1201.17,699.5 1177.83,699.5 1154.5,699.5C 1154.5,687.833 1154.5,676.167 1154.5,664.5C 1177.83,664.5 1201.17,664.5 1224.5,664.5 Z"/></g>
<g><path style="opacity:1" fill="#8692ac" d="M 1224.5,664.5 C 1236.17,664.5 1247.83,664.5 1259.5,664.5C 1259.5,676.167 1259.5,687.833 1259.5,699.5C 1247.83,699.5 1236.17,699.5 1224.5,699.5C 1224.5,687.833 1224.5,676.167 1224.5,664.5 Z"/></g>
<g><path style="opacity:1" fill="#96b093" d="M 384.5,699.5 C 384.5,711.167 384.5,722.833 384.5,734.5C 361.167,734.5 337.833,734.5 314.5,734.5C 314.5,722.833 314.5,711.167 314.5,699.5C 337.833,699.5 361.167,699.5 384.5,699.5 Z"/></g>
<g><path style="opacity:1" fill="#708c6b" d="M 384.5,699.5 C 396.167,699.5 407.833,699.5 419.5,699.5C 419.5,711.167 419.5,722.833 419.5,734.5C 407.833,734.5 396.167,734.5 384.5,734.5C 384.5,722.833 384.5,711.167 384.5,699.5 Z"/></g>
<g><path style="opacity:1" fill="#96b093" d="M 419.5,699.5 C 431.167,699.5 442.833,699.5 454.5,699.5C 454.5,711.167 454.5,722.833 454.5,734.5C 477.833,734.5 501.167,734.5 524.5,734.5C 524.5,746.167 524.5,757.833 524.5,769.5C 524.5,816.167 524.5,862.833 524.5,909.5C 501.167,909.5 477.833,909.5 454.5,909.5C 454.5,897.833 454.5,886.167 454.5,874.5C 442.833,874.5 431.167,874.5 419.5,874.5C 419.5,862.833 419.5,851.167 419.5,839.5C 407.833,839.5 396.167,839.5 384.5,839.5C 384.5,827.833 384.5,816.167 384.5,804.5C 396.167,804.5 407.833,804.5 419.5,804.5C 419.5,792.833 419.5,781.167 419.5,769.5C 407.833,769.5 396.167,769.5 384.5,769.5C 384.5,757.833 384.5,746.167 384.5,734.5C 396.167,734.5 407.833,734.5 419.5,734.5C 419.5,722.833 419.5,711.167 419.5,699.5 Z"/></g>
<g><path style="opacity:1" fill="#4b6646" d="M 454.5,699.5 C 477.833,699.5 501.167,699.5 524.5,699.5C 524.5,711.167 524.5,722.833 524.5,734.5C 501.167,734.5 477.833,734.5 454.5,734.5C 454.5,722.833 454.5,711.167 454.5,699.5 Z"/></g>
<g><path style="opacity:1" fill="#f5fdf4" d="M 524.5,699.5 C 547.833,699.5 571.167,699.5 594.5,699.5C 594.5,711.167 594.5,722.833 594.5,734.5C 571.167,734.5 547.833,734.5 524.5,734.5C 524.5,722.833 524.5,711.167 524.5,699.5 Z"/></g>
<g><path style="opacity:1" fill="#4b6646" d="M 594.5,699.5 C 617.833,699.5 641.167,699.5 664.5,699.5C 676.167,699.5 687.833,699.5 699.5,699.5C 699.5,711.167 699.5,722.833 699.5,734.5C 664.5,734.5 629.5,734.5 594.5,734.5C 594.5,722.833 594.5,711.167 594.5,699.5 Z"/></g>
<g><path style="opacity:1" fill="#395134" d="M 699.5,699.5 C 734.5,699.5 769.5,699.5 804.5,699.5C 804.5,711.167 804.5,722.833 804.5,734.5C 792.833,734.5 781.167,734.5 769.5,734.5C 769.5,746.167 769.5,757.833 769.5,769.5C 746.167,769.5 722.833,769.5 699.5,769.5C 699.5,757.833 699.5,746.167 699.5,734.5C 699.5,722.833 699.5,711.167 699.5,699.5 Z"/></g>
<g><path style="opacity:1" fill="#fefffd" d="M 874.5,699.5 C 886.167,699.5 897.833,699.5 909.5,699.5C 909.5,722.833 909.5,746.167 909.5,769.5C 897.833,769.5 886.167,769.5 874.5,769.5C 874.5,746.167 874.5,722.833 874.5,699.5 Z"/></g>
<g><path style="opacity:1" fill="#8f9fbf" d="M 1154.5,699.5 C 1154.5,711.167 1154.5,722.833 1154.5,734.5C 1142.83,734.5 1131.17,734.5 1119.5,734.5C 1119.5,746.167 1119.5,757.833 1119.5,769.5C 1107.83,769.5 1096.17,769.5 1084.5,769.5C 1084.5,757.833 1084.5,746.167 1084.5,734.5C 1061.17,734.5 1037.83,734.5 1014.5,734.5C 1014.5,746.167 1014.5,757.833 1014.5,769.5C 991.167,769.5 967.833,769.5 944.5,769.5C 944.5,757.833 944.5,746.167 944.5,734.5C 956.167,734.5 967.833,734.5 979.5,734.5C 979.5,722.833 979.5,711.167 979.5,699.5C 1037.83,699.5 1096.17,699.5 1154.5,699.5 Z"/></g>
<g><path style="opacity:1" fill="#8692ac" d="M 1154.5,699.5 C 1177.83,699.5 1201.17,699.5 1224.5,699.5C 1224.5,711.167 1224.5,722.833 1224.5,734.5C 1201.17,734.5 1177.83,734.5 1154.5,734.5C 1154.5,722.833 1154.5,711.167 1154.5,699.5 Z"/></g>
<g><path style="opacity:1" fill="#4b6646" d="M 209.5,734.5 C 209.5,746.167 209.5,757.833 209.5,769.5C 221.167,769.5 232.833,769.5 244.5,769.5C 244.5,781.167 244.5,792.833 244.5,804.5C 221.167,804.5 197.833,804.5 174.5,804.5C 174.5,781.167 174.5,757.833 174.5,734.5C 186.167,734.5 197.833,734.5 209.5,734.5 Z"/></g>
<g><path style="opacity:1" fill="#4b6646" d="M 524.5,734.5 C 547.833,734.5 571.167,734.5 594.5,734.5C 594.5,746.167 594.5,757.833 594.5,769.5C 571.167,769.5 547.833,769.5 524.5,769.5C 524.5,757.833 524.5,746.167 524.5,734.5 Z"/></g>
<g><path style="opacity:1" fill="#243b20" d="M 594.5,734.5 C 629.5,734.5 664.5,734.5 699.5,734.5C 699.5,746.167 699.5,757.833 699.5,769.5C 722.833,769.5 746.167,769.5 769.5,769.5C 769.5,757.833 769.5,746.167 769.5,734.5C 781.167,734.5 792.833,734.5 804.5,734.5C 804.5,757.833 804.5,781.167 804.5,804.5C 781.167,804.5 757.833,804.5 734.5,804.5C 734.5,816.167 734.5,827.833 734.5,839.5C 757.833,839.5 781.167,839.5 804.5,839.5C 804.5,851.167 804.5,862.833 804.5,874.5C 781.167,874.5 757.833,874.5 734.5,874.5C 734.5,886.167 734.5,897.833 734.5,909.5C 711.167,909.5 687.833,909.5 664.5,909.5C 664.5,921.167 664.5,932.833 664.5,944.5C 641.167,944.5 617.833,944.5 594.5,944.5C 594.5,956.167 594.5,967.833 594.5,979.5C 571.167,979.5 547.833,979.5 524.5,979.5C 524.5,967.833 524.5,956.167 524.5,944.5C 524.5,932.833 524.5,921.167 524.5,909.5C 524.5,862.833 524.5,816.167 524.5,769.5C 547.833,769.5 571.167,769.5 594.5,769.5C 594.5,757.833 594.5,746.167 594.5,734.5 Z"/></g>
<g><path style="opacity:1" fill="#8692ac" d="M 1119.5,769.5 C 1119.5,781.167 1119.5,792.833 1119.5,804.5C 1037.83,804.5 956.167,804.5 874.5,804.5C 874.5,792.833 874.5,781.167 874.5,769.5C 886.167,769.5 897.833,769.5 909.5,769.5C 921.167,769.5 932.833,769.5 944.5,769.5C 967.833,769.5 991.167,769.5 1014.5,769.5C 1014.5,757.833 1014.5,746.167 1014.5,734.5C 1037.83,734.5 1061.17,734.5 1084.5,734.5C 1084.5,746.167 1084.5,757.833 1084.5,769.5C 1096.17,769.5 1107.83,769.5 1119.5,769.5 Z"/></g>
<g><path style="opacity:1" fill="#8692ac" d="M 1154.5,734.5 C 1154.5,746.167 1154.5,757.833 1154.5,769.5C 1142.83,769.5 1131.17,769.5 1119.5,769.5C 1119.5,757.833 1119.5,746.167 1119.5,734.5C 1131.17,734.5 1142.83,734.5 1154.5,734.5 Z"/></g>
<g><path style="opacity:1" fill="#96b093" d="M 384.5,769.5 C 384.5,781.167 384.5,792.833 384.5,804.5C 361.167,804.5 337.833,804.5 314.5,804.5C 314.5,792.833 314.5,781.167 314.5,769.5C 337.833,769.5 361.167,769.5 384.5,769.5 Z"/></g>
<g><path style="opacity:1" fill="#708c6b" d="M 384.5,769.5 C 396.167,769.5 407.833,769.5 419.5,769.5C 419.5,781.167 419.5,792.833 419.5,804.5C 407.833,804.5 396.167,804.5 384.5,804.5C 384.5,792.833 384.5,781.167 384.5,769.5 Z"/></g>
<g><path style="opacity:1" fill="#4b6646" d="M 244.5,804.5 C 267.833,804.5 291.167,804.5 314.5,804.5C 314.5,816.167 314.5,827.833 314.5,839.5C 291.167,839.5 267.833,839.5 244.5,839.5C 244.5,827.833 244.5,816.167 244.5,804.5 Z"/></g>
<g><path style="opacity:1" fill="#708c6b" d="M 314.5,804.5 C 337.833,804.5 361.167,804.5 384.5,804.5C 384.5,816.167 384.5,827.833 384.5,839.5C 361.167,839.5 337.833,839.5 314.5,839.5C 314.5,827.833 314.5,816.167 314.5,804.5 Z"/></g>
<g><path style="opacity:1" fill="#4b6646" d="M 804.5,804.5 C 804.5,816.167 804.5,827.833 804.5,839.5C 781.167,839.5 757.833,839.5 734.5,839.5C 734.5,827.833 734.5,816.167 734.5,804.5C 757.833,804.5 781.167,804.5 804.5,804.5 Z"/></g>
<g><path style="opacity:1" fill="#b47123" d="M 804.5,804.5 C 827.833,804.5 851.167,804.5 874.5,804.5C 874.5,816.167 874.5,827.833 874.5,839.5C 851.167,839.5 827.833,839.5 804.5,839.5C 804.5,827.833 804.5,816.167 804.5,804.5 Z"/></g>
<g><path style="opacity:1" fill="#4b6646" d="M 314.5,839.5 C 337.833,839.5 361.167,839.5 384.5,839.5C 384.5,851.167 384.5,862.833 384.5,874.5C 361.167,874.5 337.833,874.5 314.5,874.5C 314.5,862.833 314.5,851.167 314.5,839.5 Z"/></g>
<g><path style="opacity:1" fill="#708c6b" d="M 384.5,839.5 C 396.167,839.5 407.833,839.5 419.5,839.5C 419.5,851.167 419.5,862.833 419.5,874.5C 407.833,874.5 396.167,874.5 384.5,874.5C 384.5,862.833 384.5,851.167 384.5,839.5 Z"/></g>
<g><path style="opacity:1" fill="#4b6646" d="M 384.5,874.5 C 396.167,874.5 407.833,874.5 419.5,874.5C 431.167,874.5 442.833,874.5 454.5,874.5C 454.5,886.167 454.5,897.833 454.5,909.5C 431.167,909.5 407.833,909.5 384.5,909.5C 384.5,897.833 384.5,886.167 384.5,874.5 Z"/></g>
<g><path style="opacity:1" fill="#4b6646" d="M 454.5,909.5 C 477.833,909.5 501.167,909.5 524.5,909.5C 524.5,921.167 524.5,932.833 524.5,944.5C 501.167,944.5 477.833,944.5 454.5,944.5C 454.5,932.833 454.5,921.167 454.5,909.5 Z"/></g>
</svg>
