<svg width="144" height="46" viewBox="0 0 144 46" fill="none" xmlns="http://www.w3.org/2000/svg">
<g clip-path="url(#clip0_855_292)">
<path fill-rule="evenodd" clip-rule="evenodd" d="M37.5052 13.8113C36.9981 14.1743 36.3817 14.392 35.7296 14.4283C35.0408 14.4646 34.4247 14.2831 33.8447 13.9928C27.937 18.6022 23.1529 27.2403 23.1529 27.2403C23.1529 27.2403 23.5879 18.2392 28.1909 13.9928C26.8136 14.2831 25.5451 14.5735 24.5302 14.8276C20.2173 15.989 16.4118 17.3682 16.4118 17.3682C16.4118 17.3682 20.6522 11.6336 27.8284 9.8189C26.6685 9.67372 25.5088 9.56485 24.3491 9.63745C17.934 9.96408 16.0131 10.073 16.0131 10.073C16.0131 10.073 17.8253 8.04048 22.9356 6.77016C24.7476 6.29835 26.3786 6.11684 27.8284 6.26205C23.8053 4.26584 20.5435 2.92292 20.5435 2.92292C20.5435 2.92292 28.9156 -0.198401 34.2434 5.75391C34.5334 5.06431 34.8958 4.48363 35.2945 3.93918C29.2418 0.0556597 21.4858 -0.960589 14.3097 1.94298C2.60316 6.69756 -3.05077 20.0177 1.66083 31.7772C3.03807 35.1524 5.10394 38.0563 7.6772 40.3065C6.69863 30.7972 7.38723 20.671 7.71344 16.9327L19.3475 45.7506C19.8549 45.8233 20.3986 45.8956 20.9422 45.932L9.01819 16.4245C13.1499 20.0177 27.3572 32.8658 31.7426 43.7544C31.7788 43.8271 31.806 43.9088 31.8332 43.9905C31.8604 44.0721 31.8876 44.1538 31.9239 44.2262C35.3305 42.738 38.1939 40.5242 40.4409 37.8383C40.9123 36.2051 41.2384 34.6446 41.4921 33.1925C43.0869 23.1754 39.7885 16.9327 37.5778 13.9565C37.5778 13.8839 37.5415 13.8476 37.5052 13.8113ZM44.1018 14.5735C43.9564 14.1742 43.7754 13.775 43.594 13.3758L43.4493 13.3394L43.1953 13.2669L38.8824 12.178C41.057 14.7912 42.3982 17.5134 43.1953 20.2717C44.3915 24.3367 44.3915 28.4017 44.0654 31.9585C46.2401 26.587 46.4211 20.3806 44.1018 14.5735ZM115.899 9.96405C116.371 10.7626 117.023 11.3796 117.856 11.8151C118.69 12.2506 119.632 12.4684 120.684 12.4684C121.735 12.4684 122.677 12.2506 123.51 11.8151C124.344 11.3796 124.996 10.7626 125.468 9.96405C125.939 9.16558 126.193 8.29453 126.193 7.31455C126.193 6.33459 125.939 5.46352 125.468 4.66504C124.996 3.86657 124.344 3.24957 123.51 2.81404C122.677 2.37849 121.735 2.16073 120.684 2.16073C119.632 2.16073 118.69 2.37849 117.856 2.81404C117.023 3.24957 116.371 3.86657 115.899 4.66504C115.428 5.46352 115.174 6.33459 115.174 7.31455C115.174 8.29453 115.428 9.16558 115.899 9.96405ZM123.039 8.76634C122.786 9.20188 122.459 9.52854 122.061 9.7826C121.662 10.0367 121.191 10.1455 120.684 10.1455C120.176 10.1455 119.705 10.0367 119.306 9.7826C118.871 9.52854 118.582 9.20188 118.328 8.76634C118.074 8.3308 117.965 7.82266 117.965 7.27824C117.965 6.69756 118.074 6.22572 118.328 5.79018C118.582 5.35464 118.908 5.02801 119.306 4.77392C119.741 4.51987 120.176 4.41099 120.684 4.41099C121.191 4.41099 121.662 4.51987 122.061 4.77392C122.495 5.02801 122.786 5.35464 123.039 5.79018C123.293 6.22572 123.402 6.73386 123.402 7.27824C123.402 7.85896 123.293 8.3308 123.039 8.76634ZM58.2728 6.69759V4.51993H63.2741V2.34224H55.482V12.287H58.2728V8.87525H62.658V6.69759H58.2728ZM69.363 9.63745H70.8852L72.6611 12.287H75.6692L73.5309 9.16561C74.1833 8.83898 74.6547 8.43974 74.9808 7.89533C75.3072 7.35088 75.4882 6.73389 75.4882 6.008C75.4882 5.24579 75.3072 4.5925 74.9444 4.04809C74.5821 3.50367 74.0747 3.06814 73.4226 2.77779C72.7701 2.48743 72.0087 2.34224 71.1029 2.34224H66.5723V12.287H69.363V9.63745ZM70.9215 4.5562C71.5016 4.5562 71.9363 4.70138 72.2264 4.95544C72.5161 5.20952 72.6611 5.57246 72.6611 6.008C72.6611 6.47984 72.5161 6.84277 72.2264 7.09683C71.9363 7.35088 71.5016 7.45979 70.9215 7.45979H69.363V4.5562H70.9215ZM86.9775 10.1093V12.287H79.0037V2.34224H86.7961V4.51993H81.7944V6.18948H86.216V8.29456H81.7944V10.1093H86.9775ZM98.4664 12.287V10.1093H93.2837V8.29456H97.7053V6.18948H93.2837V4.51993H98.2851V2.34224H90.493V12.287H98.4664ZM102.018 2.34224H106.694C107.781 2.34224 108.759 2.56002 109.593 2.95925C110.426 3.3585 111.079 3.93921 111.55 4.70138C112.021 5.46358 112.239 6.33466 112.239 7.31461C112.239 8.33087 112.021 9.20191 111.55 9.92781C111.079 10.69 110.426 11.2344 109.593 11.67C108.759 12.0692 107.781 12.287 106.694 12.287H102.018V2.34224ZM106.585 10.0367C107.419 10.0367 108.107 9.78263 108.615 9.31082C109.122 8.83898 109.376 8.14939 109.376 7.31461C109.376 6.47984 109.122 5.79021 108.615 5.3184C108.107 4.84656 107.419 4.5925 106.585 4.5925H104.809V10.0367H106.585ZM138.624 12.287L138.588 7.02425L136.051 11.307H134.819L132.282 7.16943V12.287H129.672V2.34224H131.991L135.471 8.07678L138.878 2.34224H141.197L141.233 12.287H138.624ZM64.9777 25.5343C64.9777 24.9536 64.8327 24.4456 64.5063 24.01C64.1806 23.5743 63.7455 23.284 63.1658 23.03C63.6005 22.8123 63.9266 22.5219 64.1442 22.1589C64.3979 21.796 64.5063 21.3605 64.5063 20.8887C64.5063 20.0902 64.1803 19.4732 63.5282 19.0013C62.8394 18.5295 61.8973 18.3117 60.6287 18.3117H55.5547V28.2565H60.8821C62.2233 28.2565 63.2378 28.0025 63.9266 27.5305C64.6153 27.0588 64.9777 26.4055 64.9777 25.5343ZM58.3091 22.2678V20.3442H60.23C61.1722 20.3442 61.6432 20.6709 61.6432 21.2879C61.6432 21.9412 61.1722 22.2678 60.23 22.2678H58.3091ZM60.6648 24.1915C61.6432 24.1915 62.1506 24.5543 62.1506 25.2076C62.1506 25.8973 61.6432 26.2239 60.6648 26.1876H58.3091V24.1915H60.6648ZM69.5443 27.2402C68.7106 26.4416 68.3122 25.2802 68.3122 23.8286V18.3117H71.1029V23.7196C71.1029 25.3166 71.719 26.1152 72.9875 26.1152C74.2197 26.1152 74.8721 25.3166 74.8721 23.7196V18.3117H77.6265V23.8286C77.6265 25.3166 77.2281 26.4416 76.3943 27.2402C75.5609 28.0386 74.437 28.4379 72.9512 28.4379C71.5376 28.4379 70.3778 28.0386 69.5443 27.2402ZM80.8159 27.3492C81.2873 27.6759 81.9034 27.9662 82.6642 28.1476C83.4256 28.3655 84.2231 28.4381 84.9839 28.4742C85.9263 28.4742 86.7238 28.3291 87.3762 28.0388C88.0286 27.7485 88.5357 27.3492 88.8621 26.8773C89.1881 26.3692 89.3692 25.8249 89.3692 25.2442C89.3692 24.5545 89.1881 24.01 88.8257 23.6109C88.4633 23.2116 88.0286 22.9213 87.5209 22.7397C87.0135 22.5583 86.3974 22.3768 85.6363 22.2316L85.5472 22.2118C84.9379 22.0764 84.4633 21.9709 84.1867 21.8324C83.8604 21.7235 83.7154 21.5057 83.7154 21.2517C83.7154 20.9613 83.8604 20.7798 84.1141 20.5984C84.3678 20.4169 84.8028 20.3443 85.3462 20.3443C86.2524 20.3443 87.1585 20.5984 88.1006 21.1065L88.9707 19.0377C88.4994 18.7473 87.9196 18.5296 87.3035 18.3844C86.6874 18.2392 86.035 18.1666 85.3826 18.1666C84.4041 18.1666 83.6067 18.3118 82.9546 18.6022C82.3021 18.8925 81.7944 19.2918 81.4684 19.7636C81.142 20.2354 80.961 20.7798 80.961 21.3969C80.961 22.0864 81.142 22.6309 81.5047 23.03C81.8671 23.4293 82.3021 23.7196 82.8092 23.9012C83.3166 24.0826 83.9327 24.2642 84.6938 24.4093C85.3826 24.5545 85.89 24.6996 86.18 24.8449C86.5061 24.9536 86.6511 25.1715 86.6511 25.4619C86.6511 26.0062 86.1077 26.2603 85.0202 26.2603C84.4404 26.2603 83.8604 26.1878 83.2806 26.0062C82.6642 25.8249 82.1571 25.5708 81.7221 25.2803L80.8159 27.3492ZM92.6676 18.3117H95.4583V28.2565H92.6676V18.3117ZM108.905 28.2565V18.3117H106.15V23.6107L101.765 18.3117H99.4449V28.2565H102.199V22.9573L106.585 28.2565H108.905ZM120.828 26.0788V28.2565H112.855V18.3117H120.647V20.4894H115.646V22.1589H120.067V24.264H115.646V26.0788H120.828ZM123.655 27.3492C124.126 27.6759 124.742 27.9662 125.504 28.1476C126.265 28.3655 127.026 28.4381 127.824 28.4742C128.766 28.4742 129.563 28.3291 130.215 28.0388C130.868 27.7485 131.375 27.3492 131.701 26.8773C132.027 26.3692 132.209 25.8249 132.209 25.2442C132.209 24.5545 132.027 24.01 131.665 23.6109C131.303 23.2116 130.868 22.9213 130.361 22.7397C129.853 22.5583 129.237 22.3768 128.476 22.2316L128.386 22.2116C127.777 22.0762 127.302 21.9708 127.026 21.8324C126.7 21.7235 126.555 21.5057 126.555 21.2517C126.555 20.9613 126.7 20.7798 126.953 20.5984C127.207 20.4169 127.642 20.3443 128.186 20.3443C129.092 20.3443 129.998 20.5984 130.94 21.1065L131.81 19.0377C131.339 18.7473 130.759 18.5296 130.143 18.3844C129.527 18.2392 128.874 18.1666 128.222 18.1666C127.243 18.1666 126.446 18.3118 125.794 18.6022C125.141 18.8925 124.634 19.2918 124.308 19.7636C123.982 20.2354 123.8 20.7798 123.8 21.3969C123.8 22.0864 123.982 22.6309 124.344 23.03C124.706 23.4293 125.141 23.7196 125.649 23.9012C126.156 24.0826 126.772 24.2642 127.533 24.4093C128.222 24.5545 128.729 24.6996 129.019 24.8449C129.345 24.9536 129.49 25.1715 129.49 25.4619C129.49 26.0062 128.947 26.2603 127.86 26.2603C127.279 26.2603 126.7 26.1878 126.12 26.0062C125.504 25.8249 124.996 25.5708 124.561 25.2803L123.655 27.3492ZM136.667 28.1476C135.906 27.9662 135.29 27.6759 134.818 27.3492L135.724 25.2803C136.159 25.5708 136.667 25.8249 137.283 26.0062C137.863 26.1878 138.443 26.2603 139.022 26.2603C140.11 26.2603 140.653 26.0062 140.653 25.4619C140.653 25.1715 140.509 24.9536 140.182 24.8449C139.892 24.6996 139.385 24.5545 138.696 24.4093C137.935 24.2642 137.319 24.0826 136.812 23.9012C136.304 23.7196 135.869 23.4293 135.507 23.03C135.144 22.6309 134.963 22.0864 134.963 21.3969C134.963 20.7798 135.144 20.2354 135.471 19.7636C135.797 19.2918 136.304 18.8925 136.957 18.6022C137.609 18.3118 138.406 18.1666 139.385 18.1666C140.037 18.1666 140.69 18.2392 141.306 18.3844C141.922 18.5296 142.502 18.7473 142.973 19.0377L142.103 21.1065C141.161 20.5984 140.255 20.3443 139.349 20.3443C138.805 20.3443 138.37 20.4169 138.116 20.5984C137.863 20.7798 137.718 20.9613 137.718 21.2517C137.718 21.5057 137.863 21.7235 138.189 21.8324C138.466 21.9709 138.94 22.0764 139.549 22.2118L139.639 22.2316C140.4 22.3768 141.016 22.5583 141.523 22.7397C142.031 22.9213 142.466 23.2116 142.828 23.6109C143.19 24.01 143.372 24.5545 143.372 25.2442C143.372 25.8249 143.19 26.3692 142.864 26.8773C142.538 27.3492 142.031 27.7485 141.378 28.0388C140.726 28.3291 139.929 28.4742 138.986 28.4742C138.189 28.4381 137.392 28.3655 136.667 28.1476ZM55.5084 43.7811C55.9795 44.1078 56.5956 44.3982 57.3567 44.5795C58.0814 44.7972 58.8792 44.8699 59.6763 44.9059C60.6185 44.9059 61.4162 44.7609 62.0683 44.4705C62.7207 44.1802 63.2281 43.7811 63.5542 43.3091C63.8806 42.801 64.0616 42.2567 64.0616 41.6759C64.0616 40.9865 63.8806 40.4418 63.5182 40.0428C63.1555 39.6434 62.7207 39.3531 62.2133 39.1714C61.7059 38.99 61.0899 38.8087 60.3287 38.6634L60.2435 38.6447C59.6323 38.5087 59.1564 38.4032 58.8792 38.2643C58.5528 38.1553 58.4078 37.9376 58.4078 37.6836C58.4078 37.3932 58.5528 37.2119 58.8065 37.0302C59.0602 36.8489 59.4953 36.7762 60.0387 36.7762C60.9448 36.7762 61.851 37.0302 62.7931 37.5386L63.6632 35.4694C63.1918 35.1794 62.6121 34.9614 61.996 34.8163C61.3799 34.6713 60.7275 34.5986 60.075 34.5986C59.0966 34.5986 58.2991 34.7437 57.6467 35.034C56.9943 35.3244 56.4869 35.7238 56.1608 36.1955C55.8344 36.6675 55.6534 37.2119 55.6534 37.8289C55.6534 38.5183 55.8344 39.0627 56.1968 39.4618C56.5595 39.8611 56.9943 40.1515 57.5017 40.3332C58.0091 40.5145 58.6252 40.6962 59.3863 40.8412C60.075 40.9865 60.5824 41.1316 60.8722 41.2766C61.1985 41.3856 61.3436 41.6033 61.3436 41.8936C61.3436 42.438 60.7998 42.692 59.7127 42.692C59.1326 42.692 58.5528 42.6197 57.9728 42.438C57.3567 42.2567 56.8493 42.0026 56.4142 41.7123L55.5084 43.7811ZM68.4836 43.6721C67.6498 42.8734 67.2511 41.7123 67.2511 40.2605V34.7437H70.0418V40.1515C70.0418 41.7486 70.6582 42.547 71.9267 42.547C73.1589 42.547 73.8113 41.7486 73.8113 40.1515V34.7437H76.5657V40.2605C76.5657 41.7486 76.167 42.8734 75.3332 43.6721C74.4997 44.4705 73.3763 44.8699 71.8904 44.8699C70.4405 44.8699 69.2807 44.4705 68.4836 43.6721ZM89.3595 39.4254L89.3958 44.6885H92.0052L91.9692 34.7437H89.6495L86.2427 40.4782L82.7632 34.7437H80.4436V44.6885H83.0533V39.5708L85.5903 43.7085H86.8225L89.3595 39.4254ZM104.908 44.6885L104.872 39.4254L102.335 43.7085H101.102L98.5655 39.5708V44.6885H95.9558V34.7437H98.2754L101.755 40.4782L105.161 34.7437H107.481L107.517 44.6885H104.908ZM114.222 34.7437H111.432V44.6885H114.222V34.7437ZM120.347 36.9939H117.303V34.78H126.182V36.9939H123.138V44.6882H120.347V36.9939Z" fill="white"/>
</g>
<defs>
<clipPath id="clip0_855_292">
<rect width="143.411" height="45.66" fill="white" transform="translate(0 0.271973)"/>
</clipPath>
</defs>
</svg>
